<?xml version="1.0" encoding="UTF-8"?>
<svg id="Layer_2" data-name="Layer 2" xmlns="http://www.w3.org/2000/svg" viewBox="0 0 187.78 42.52">
  <defs>
    <style>
      .cls-1 {
        stroke-dasharray: .48 .48;
      }

      .cls-1, .cls-2, .cls-3, .cls-4, .cls-5, .cls-6, .cls-7 {
        stroke: #000;
        stroke-linecap: round;
        stroke-linejoin: round;
        stroke-width: .25px;
      }

      .cls-1, .cls-3, .cls-4, .cls-5, .cls-7 {
        fill: none;
      }

      .cls-2 {
        fill: silver;
        opacity: .54;
      }

      .cls-3 {
        stroke-dasharray: .5 .5;
      }

      .cls-5 {
        stroke-dasharray: .5 .5;
      }

      .cls-6 {
        fill: #c9c9c9;
      }

      .cls-7 {
        stroke-dasharray: .5 .5;
      }
    </style>
  </defs>
  <g id="Layer_1-2" data-name="Layer 1">
    <g>
      <line class="cls-4" x1=".12" y1="16.87" x2=".12" y2="42.32"/>
      <line class="cls-4" x1="5.34" y1="36.33" x2="183.83" y2="36.33"/>
      <line class="cls-4" x1="187.65" y1="16.87" x2="187.65" y2="42.4"/>
      <polygon points=".11 36.2 8.85 37.68 8.85 34.72 .11 36.2"/>
      <polygon points="187.41 36.2 178.67 34.72 178.67 37.68 187.41 36.2"/>
    </g>
    <rect class="cls-2" x="8.08" y="4.41" width="174.25" height="15.28"/>
    <g>
      <line class="cls-4" x1="181.41" y1="10.19" x2="181.17" y2="10.19"/>
      <line class="cls-4" x1="181.17" y1="13.09" x2="181.41" y2="13.09"/>
      <line class="cls-4" x1="181.41" y1="13.09" x2="187.65" y2="13.09"/>
      <line class="cls-4" x1="181.41" y1="10.19" x2="187.65" y2="10.19"/>
      <line class="cls-4" x1="187.65" y1="13.09" x2="187.65" y2="10.19"/>
      <path class="cls-4" d="M187.66,11.26s0,0,0,0"/>
      <line class="cls-4" x1="168.87" y1="13.11" x2="169.12" y2="13.11"/>
      <line class="cls-7" x1="169.62" y1="13.11" x2="180.27" y2="13.11"/>
      <line class="cls-4" x1="180.52" y1="13.11" x2="180.77" y2="13.11"/>
      <line class="cls-4" x1="168.87" y1="10.21" x2="169.12" y2="10.21"/>
      <line class="cls-7" x1="169.62" y1="10.21" x2="180.27" y2="10.21"/>
      <line class="cls-4" x1="180.52" y1="10.21" x2="180.77" y2="10.21"/>
      <line class="cls-4" x1="168.87" y1="13.11" x2="168.87" y2="12.86"/>
      <line class="cls-1" x1="168.87" y1="12.38" x2="168.87" y2="10.7"/>
      <line class="cls-4" x1="168.87" y1="10.46" x2="168.87" y2="10.21"/>
      <line class="cls-4" x1="169.75" y1="18.75" x2="169.75" y2="18.5"/>
      <line class="cls-5" x1="169.75" y1="18" x2="169.75" y2="5.27"/>
      <line class="cls-4" x1="169.75" y1="5.02" x2="169.75" y2="4.77"/>
      <line class="cls-4" x1="170.53" y1="18.75" x2="170.53" y2="18.5"/>
      <line class="cls-5" x1="170.53" y1="18" x2="170.53" y2="5.27"/>
      <line class="cls-4" x1="170.53" y1="5.02" x2="170.53" y2="4.77"/>
      <line class="cls-3" x1="170.53" y1="4.77" x2="169.75" y2="4.77"/>
      <line class="cls-4" x1="178.28" y1="18.75" x2="178.28" y2="18.5"/>
      <line class="cls-5" x1="178.28" y1="18" x2="178.28" y2="5.27"/>
      <line class="cls-4" x1="178.28" y1="5.02" x2="178.28" y2="4.77"/>
      <line class="cls-4" x1="179.07" y1="18.75" x2="179.07" y2="18.5"/>
      <line class="cls-5" x1="179.07" y1="18" x2="179.07" y2="5.27"/>
      <line class="cls-4" x1="179.07" y1="5.02" x2="179.07" y2="4.77"/>
      <line class="cls-3" x1="179.07" y1="4.77" x2="178.28" y2="4.77"/>
    </g>
    <g>
      <line class="cls-4" x1="6.82" y1="10.19" x2="7.07" y2="10.19"/>
      <line class="cls-4" x1="7.07" y1="13.09" x2="6.83" y2="13.09"/>
      <line class="cls-4" x1="6.82" y1="13.09" x2=".13" y2="13.09"/>
      <line class="cls-4" x1="6.82" y1="10.19" x2=".13" y2="10.19"/>
      <line class="cls-4" x1=".13" y1="13.09" x2=".13" y2="10.19"/>
      <path class="cls-4" d="M.12,11.26s0,0,0,0"/>
      <line class="cls-4" x1="19.36" y1="13.11" x2="19.11" y2="13.11"/>
      <line class="cls-7" x1="18.61" y1="13.11" x2="7.97" y2="13.11"/>
      <line class="cls-4" x1="7.72" y1="13.11" x2="7.47" y2="13.11"/>
      <line class="cls-4" x1="19.36" y1="10.21" x2="19.11" y2="10.21"/>
      <line class="cls-7" x1="18.61" y1="10.21" x2="7.97" y2="10.21"/>
      <line class="cls-4" x1="7.72" y1="10.21" x2="7.47" y2="10.21"/>
      <line class="cls-4" x1="19.36" y1="13.11" x2="19.36" y2="12.86"/>
      <line class="cls-1" x1="19.36" y1="12.38" x2="19.36" y2="10.7"/>
      <line class="cls-4" x1="19.36" y1="10.46" x2="19.36" y2="10.21"/>
      <line class="cls-4" x1="18.49" y1="18.75" x2="18.49" y2="18.5"/>
      <line class="cls-5" x1="18.49" y1="18" x2="18.49" y2="5.27"/>
      <line class="cls-4" x1="18.49" y1="5.02" x2="18.49" y2="4.77"/>
      <line class="cls-4" x1="17.7" y1="18.75" x2="17.7" y2="18.5"/>
      <line class="cls-5" x1="17.7" y1="18" x2="17.7" y2="5.27"/>
      <line class="cls-4" x1="17.7" y1="5.02" x2="17.7" y2="4.77"/>
      <line class="cls-3" x1="17.7" y1="4.77" x2="18.49" y2="4.77"/>
      <line class="cls-4" x1="9.95" y1="18.75" x2="9.95" y2="18.5"/>
      <line class="cls-5" x1="9.95" y1="18" x2="9.95" y2="5.27"/>
      <line class="cls-4" x1="9.95" y1="5.02" x2="9.95" y2="4.77"/>
      <line class="cls-4" x1="9.17" y1="18.75" x2="9.17" y2="18.5"/>
      <line class="cls-5" x1="9.17" y1="18" x2="9.17" y2="5.27"/>
      <line class="cls-4" x1="9.17" y1="5.02" x2="9.17" y2="4.77"/>
      <line class="cls-3" x1="9.17" y1="4.77" x2="9.95" y2="4.77"/>
      <rect class="cls-4" x="1.34" y="10.91" width="4.88" height="1.25" rx=".63" ry=".63"/>
    </g>
    <rect class="cls-6" x="181.42" y=".12" width=".9" height="21.69"/>
  </g>
</svg>