<?xml version="1.0" encoding="UTF-8"?>
<svg id="Layer_2" data-name="Layer 2" xmlns="http://www.w3.org/2000/svg" viewBox="0 0 200.06 33.05">
  <defs>
    <style>
      .cls-1 {
        stroke-dasharray: .48 .48;
      }

      .cls-1, .cls-2, .cls-3, .cls-4, .cls-5, .cls-6 {
        stroke: #000;
        stroke-linecap: round;
        stroke-linejoin: round;
        stroke-width: .25px;
      }

      .cls-1, .cls-3, .cls-4, .cls-5, .cls-6 {
        fill: none;
      }

      .cls-2 {
        fill: silver;
        opacity: .54;
      }

      .cls-3 {
        stroke-dasharray: .5 .5;
      }

      .cls-5 {
        stroke-dasharray: .5 .5;
      }

      .cls-6 {
        stroke-dasharray: .5 .5;
      }
    </style>
  </defs>
  <g id="Layer_1-2" data-name="Layer 1">
    <g>
      <g>
        <line class="cls-4" x1=".12" y1="20.18" x2=".12" y2="32.92"/>
        <line class="cls-4" x1="7.1" y1="26.86" x2="191.95" y2="26.86"/>
        <line class="cls-4" x1="199.93" y1="10.79" x2="199.93" y2="32.92"/>
        <polygon points=".12 26.86 8.86 28.34 8.86 25.38 .12 26.86"/>
        <polygon points="199.95 26.86 191.21 25.38 191.21 28.34 199.95 26.86"/>
      </g>
      <rect class="cls-2" x="9.32" y=".12" width="174.25" height="15.28"/>
      <g>
        <line class="cls-4" x1="182.66" y1="5.9" x2="182.41" y2="5.9"/>
        <line class="cls-4" x1="182.41" y1="8.81" x2="182.66" y2="8.81"/>
        <line class="cls-4" x1="182.66" y1="8.81" x2="199.93" y2="8.81"/>
        <line class="cls-4" x1="182.66" y1="5.9" x2="199.93" y2="5.9"/>
        <line class="cls-4" x1="199.93" y1="8.81" x2="199.93" y2="5.9"/>
        <path class="cls-4" d="M199.93,6.98s0,0,0,0"/>
        <line class="cls-4" x1="170.12" y1="8.83" x2="170.37" y2="8.83"/>
        <line class="cls-6" x1="170.87" y1="8.83" x2="181.52" y2="8.83"/>
        <line class="cls-4" x1="181.76" y1="8.83" x2="182.01" y2="8.83"/>
        <line class="cls-4" x1="170.12" y1="5.93" x2="170.37" y2="5.93"/>
        <line class="cls-6" x1="170.87" y1="5.93" x2="181.52" y2="5.93"/>
        <line class="cls-4" x1="181.76" y1="5.93" x2="182.01" y2="5.93"/>
        <line class="cls-4" x1="170.12" y1="8.83" x2="170.12" y2="8.58"/>
        <line class="cls-1" x1="170.12" y1="8.1" x2="170.12" y2="6.42"/>
        <line class="cls-4" x1="170.12" y1="6.18" x2="170.12" y2="5.93"/>
        <line class="cls-4" x1="171" y1="14.47" x2="171" y2="14.22"/>
        <line class="cls-5" x1="171" y1="13.72" x2="171" y2=".99"/>
        <line class="cls-4" x1="171" y1=".74" x2="171" y2=".49"/>
        <line class="cls-4" x1="171.78" y1="14.47" x2="171.78" y2="14.22"/>
        <line class="cls-5" x1="171.78" y1="13.72" x2="171.78" y2=".99"/>
        <line class="cls-4" x1="171.78" y1=".74" x2="171.78" y2=".49"/>
        <line class="cls-3" x1="171.78" y1=".49" x2="171" y2=".49"/>
        <line class="cls-4" x1="179.53" y1="14.47" x2="179.53" y2="14.22"/>
        <line class="cls-5" x1="179.53" y1="13.72" x2="179.53" y2=".99"/>
        <line class="cls-4" x1="179.53" y1=".74" x2="179.53" y2=".49"/>
        <line class="cls-4" x1="180.32" y1="14.47" x2="180.32" y2="14.22"/>
        <line class="cls-5" x1="180.32" y1="13.72" x2="180.32" y2=".99"/>
        <line class="cls-4" x1="180.32" y1=".74" x2="180.32" y2=".49"/>
        <line class="cls-3" x1="180.32" y1=".49" x2="179.53" y2=".49"/>
        <rect class="cls-4" x="191.95" y="6.63" width="7.27" height="1.25" rx=".63" ry=".63"/>
      </g>
      <g>
        <line class="cls-4" x1="8.07" y1="5.9" x2="8.32" y2="5.9"/>
        <line class="cls-4" x1="8.32" y1="8.81" x2="8.07" y2="8.81"/>
        <line class="cls-4" x1="8.07" y1="8.81" x2="1.37" y2="8.81"/>
        <line class="cls-4" x1="8.07" y1="5.9" x2="1.37" y2="5.9"/>
        <line class="cls-4" x1="1.37" y1="8.81" x2="1.37" y2="5.9"/>
        <path class="cls-4" d="M1.37,6.98s0,0,0,0"/>
        <line class="cls-4" x1="20.61" y1="8.83" x2="20.36" y2="8.83"/>
        <line class="cls-6" x1="19.86" y1="8.83" x2="9.21" y2="8.83"/>
        <line class="cls-4" x1="8.97" y1="8.83" x2="8.72" y2="8.83"/>
        <line class="cls-4" x1="20.61" y1="5.93" x2="20.36" y2="5.93"/>
        <line class="cls-6" x1="19.86" y1="5.93" x2="9.21" y2="5.93"/>
        <line class="cls-4" x1="8.97" y1="5.93" x2="8.72" y2="5.93"/>
        <line class="cls-4" x1="20.61" y1="8.83" x2="20.61" y2="8.58"/>
        <line class="cls-1" x1="20.61" y1="8.1" x2="20.61" y2="6.42"/>
        <line class="cls-4" x1="20.61" y1="6.18" x2="20.61" y2="5.93"/>
        <line class="cls-4" x1="19.73" y1="14.47" x2="19.73" y2="14.22"/>
        <line class="cls-5" x1="19.73" y1="13.72" x2="19.73" y2=".99"/>
        <line class="cls-4" x1="19.73" y1=".74" x2="19.73" y2=".49"/>
        <line class="cls-4" x1="18.95" y1="14.47" x2="18.95" y2="14.22"/>
        <line class="cls-5" x1="18.95" y1="13.72" x2="18.95" y2=".99"/>
        <line class="cls-4" x1="18.95" y1=".74" x2="18.95" y2=".49"/>
        <line class="cls-3" x1="18.95" y1=".49" x2="19.73" y2=".49"/>
        <line class="cls-4" x1="11.2" y1="14.47" x2="11.2" y2="14.22"/>
        <line class="cls-5" x1="11.2" y1="13.72" x2="11.2" y2=".99"/>
        <line class="cls-4" x1="11.2" y1=".74" x2="11.2" y2=".49"/>
        <line class="cls-4" x1="10.41" y1="14.47" x2="10.41" y2="14.22"/>
        <line class="cls-5" x1="10.41" y1="13.72" x2="10.41" y2=".99"/>
        <line class="cls-4" x1="10.41" y1=".74" x2="10.41" y2=".49"/>
        <line class="cls-3" x1="10.41" y1=".49" x2="11.2" y2=".49"/>
      </g>
    </g>
  </g>
</svg>