<?xml version="1.0" encoding="UTF-8"?>
<svg id="Layer_2" data-name="Layer 2" xmlns="http://www.w3.org/2000/svg" viewBox="0 0 190.82 83.65">
  <defs>
    <style>
      .cls-1 {
        stroke-dasharray: .48 .48;
      }

      .cls-1, .cls-2, .cls-3, .cls-4, .cls-5, .cls-6, .cls-7, .cls-8, .cls-9, .cls-10 {
        stroke: #000;
        stroke-linecap: round;
        stroke-linejoin: round;
        stroke-width: .25px;
      }

      .cls-1, .cls-4, .cls-5, .cls-6, .cls-9 {
        fill: none;
      }

      .cls-2 {
        opacity: .62;
      }

      .cls-2, .cls-7, .cls-10 {
        fill: #c9c9c9;
      }

      .cls-3 {
        fill: silver;
        opacity: .54;
      }

      .cls-4 {
        stroke-dasharray: .5 .5;
      }

      .cls-6 {
        stroke-dasharray: .5 .5;
      }

      .cls-8 {
        fill: #90c4e0;
      }

      .cls-9 {
        stroke-dasharray: .5 .5;
      }

      .cls-10 {
        opacity: .69;
      }
    </style>
  </defs>
  <g id="Layer_1-2" data-name="Layer 1">
    <g>
      <line class="cls-5" x1="7.79" y1="7.46" x2="7.34" y2="7.46"/>
      <line class="cls-5" x1="7.34" y1="7.16" x2="7.34" y2="1.04"/>
      <line class="cls-5" x1="7.34" y1="7.16" x2="7.34" y2="7.47"/>
      <line class="cls-5" x1="7.79" y1="7.46" x2="7.79" y2="7.16"/>
      <line class="cls-5" x1="7.79" y1="7.16" x2="7.79" y2="1.04"/>
      <path class="cls-5" d="M7.79,1.04c0-.51-.41-.92-.92-.92"/>
      <path class="cls-5" d="M7.34,1.04c0-.25-.2-.46-.46-.46"/>
      <line class="cls-5" x1="6.88" y1=".58" x2=".81" y2=".58"/>
      <path class="cls-5" d="M1.04.13c-.51,0-.92.41-.92.92"/>
      <path class="cls-5" d="M1.04.58c-.25,0-.46.21-.46.46"/>
      <line class="cls-5" x1="6.88" y1=".13" x2=".81" y2=".12"/>
      <line class="cls-5" x1=".58" y1="1.04" x2=".58" y2="44.36"/>
      <line class="cls-5" x1=".13" y1="1.04" x2=".13" y2="44.36"/>
      <line class="cls-5" x1=".13" y1="44.36" x2=".13" y2="45.98"/>
      <line class="cls-5" x1=".58" y1="45.98" x2=".58" y2="44.36"/>
      <line class="cls-5" x1=".58" y1="46" x2=".58" y2="45.98"/>
      <line class="cls-5" x1=".12" y1="46" x2=".58" y2="46"/>
    </g>
    <g>
      <line class="cls-5" x1="183.03" y1="7.46" x2="183.48" y2="7.46"/>
      <line class="cls-5" x1="183.48" y1="7.16" x2="183.48" y2="1.04"/>
      <line class="cls-5" x1="183.48" y1="7.16" x2="183.48" y2="7.47"/>
      <line class="cls-5" x1="183.03" y1="7.46" x2="183.03" y2="7.16"/>
      <line class="cls-5" x1="183.03" y1="7.16" x2="183.03" y2="1.04"/>
      <path class="cls-5" d="M183.03,1.04c0-.51.41-.92.92-.92"/>
      <path class="cls-5" d="M183.48,1.04c0-.25.2-.46.46-.46"/>
      <line class="cls-5" x1="183.94" y1=".58" x2="190.01" y2=".58"/>
      <path class="cls-5" d="M189.78.13c.51,0,.92.41.92.92"/>
      <path class="cls-5" d="M189.78.58c.25,0,.46.21.46.46"/>
      <line class="cls-5" x1="183.94" y1=".13" x2="190.01" y2=".13"/>
      <line class="cls-5" x1="190.24" y1="1.04" x2="190.24" y2="44.36"/>
      <line class="cls-5" x1="190.69" y1="1.04" x2="190.69" y2="44.36"/>
      <line class="cls-5" x1="190.69" y1="44.36" x2="190.69" y2="45.98"/>
      <line class="cls-5" x1="190.24" y1="45.98" x2="190.24" y2="44.36"/>
      <line class="cls-5" x1="190.24" y1="46" x2="190.24" y2="45.98"/>
      <line class="cls-5" x1="190.7" y1="46" x2="190.24" y2="46"/>
    </g>
    <g>
      <line class="cls-5" x1=".22" y1="51.31" x2=".22" y2="83.52"/>
      <line class="cls-5" x1="7.2" y1="79.36" x2="185.69" y2="79.36"/>
      <line class="cls-5" x1="190.66" y1="48.88" x2="190.66" y2="83.52"/>
      <polygon points=".22 79.36 8.96 80.84 8.96 77.89 .22 79.36"/>
      <polygon points="190.68 79.36 181.94 77.89 181.94 80.84 190.68 79.36"/>
    </g>
    <rect class="cls-3" x="9.94" y="16.55" width="174.25" height="15.28"/>
    <g>
      <line class="cls-5" x1="183.27" y1="22.33" x2="183.03" y2="22.33"/>
      <line class="cls-5" x1="183.03" y1="25.24" x2="183.27" y2="25.24"/>
      <line class="cls-5" x1="183.27" y1="25.24" x2="189.51" y2="25.24"/>
      <line class="cls-5" x1="183.27" y1="22.33" x2="189.51" y2="22.33"/>
      <line class="cls-5" x1="189.51" y1="25.24" x2="189.51" y2="22.33"/>
      <path class="cls-5" d="M189.52,23.41s0,0,0,0"/>
      <line class="cls-5" x1="170.73" y1="25.26" x2="170.98" y2="25.26"/>
      <line class="cls-9" x1="171.48" y1="25.26" x2="182.13" y2="25.26"/>
      <line class="cls-5" x1="182.38" y1="25.26" x2="182.63" y2="25.26"/>
      <line class="cls-5" x1="170.73" y1="22.36" x2="170.98" y2="22.36"/>
      <line class="cls-9" x1="171.48" y1="22.36" x2="182.13" y2="22.36"/>
      <line class="cls-5" x1="182.38" y1="22.36" x2="182.63" y2="22.36"/>
      <line class="cls-5" x1="170.73" y1="25.26" x2="170.73" y2="25.01"/>
      <line class="cls-1" x1="170.73" y1="24.53" x2="170.73" y2="22.85"/>
      <line class="cls-5" x1="170.73" y1="22.61" x2="170.73" y2="22.36"/>
      <line class="cls-5" x1="171.61" y1="30.9" x2="171.61" y2="30.65"/>
      <line class="cls-6" x1="171.61" y1="30.15" x2="171.61" y2="17.42"/>
      <line class="cls-5" x1="171.61" y1="17.17" x2="171.61" y2="16.92"/>
      <line class="cls-5" x1="172.39" y1="30.9" x2="172.39" y2="30.65"/>
      <line class="cls-6" x1="172.39" y1="30.15" x2="172.39" y2="17.42"/>
      <line class="cls-5" x1="172.39" y1="17.17" x2="172.39" y2="16.92"/>
      <line class="cls-4" x1="172.39" y1="16.92" x2="171.61" y2="16.92"/>
      <line class="cls-5" x1="180.14" y1="30.9" x2="180.14" y2="30.65"/>
      <line class="cls-6" x1="180.14" y1="30.15" x2="180.14" y2="17.42"/>
      <line class="cls-5" x1="180.14" y1="17.17" x2="180.14" y2="16.92"/>
      <line class="cls-5" x1="180.93" y1="30.9" x2="180.93" y2="30.65"/>
      <line class="cls-6" x1="180.93" y1="30.15" x2="180.93" y2="17.42"/>
      <line class="cls-5" x1="180.93" y1="17.17" x2="180.93" y2="16.92"/>
      <line class="cls-4" x1="180.93" y1="16.92" x2="180.14" y2="16.92"/>
    </g>
    <g>
      <line class="cls-5" x1="8.69" y1="22.33" x2="8.93" y2="22.33"/>
      <line class="cls-5" x1="8.93" y1="25.24" x2="8.69" y2="25.24"/>
      <line class="cls-5" x1="8.69" y1="25.24" x2="1.99" y2="25.24"/>
      <line class="cls-5" x1="8.69" y1="22.33" x2="1.99" y2="22.33"/>
      <line class="cls-5" x1="1.99" y1="25.24" x2="1.99" y2="22.33"/>
      <path class="cls-5" d="M1.99,23.41s0,0,0,0"/>
      <line class="cls-5" x1="21.22" y1="25.26" x2="20.97" y2="25.26"/>
      <line class="cls-9" x1="20.48" y1="25.26" x2="9.83" y2="25.26"/>
      <line class="cls-5" x1="9.58" y1="25.26" x2="9.33" y2="25.26"/>
      <line class="cls-5" x1="21.22" y1="22.36" x2="20.97" y2="22.36"/>
      <line class="cls-9" x1="20.48" y1="22.36" x2="9.83" y2="22.36"/>
      <line class="cls-5" x1="9.58" y1="22.36" x2="9.33" y2="22.36"/>
      <line class="cls-5" x1="21.22" y1="25.26" x2="21.22" y2="25.01"/>
      <line class="cls-1" x1="21.22" y1="24.53" x2="21.22" y2="22.85"/>
      <line class="cls-5" x1="21.22" y1="22.61" x2="21.22" y2="22.36"/>
      <line class="cls-5" x1="20.35" y1="30.9" x2="20.35" y2="30.65"/>
      <line class="cls-6" x1="20.35" y1="30.15" x2="20.35" y2="17.42"/>
      <line class="cls-5" x1="20.35" y1="17.17" x2="20.35" y2="16.92"/>
      <line class="cls-5" x1="19.56" y1="30.9" x2="19.56" y2="30.65"/>
      <line class="cls-6" x1="19.56" y1="30.15" x2="19.56" y2="17.42"/>
      <line class="cls-5" x1="19.56" y1="17.17" x2="19.56" y2="16.92"/>
      <line class="cls-4" x1="19.56" y1="16.92" x2="20.35" y2="16.92"/>
      <line class="cls-5" x1="11.81" y1="30.9" x2="11.81" y2="30.65"/>
      <line class="cls-6" x1="11.81" y1="30.15" x2="11.81" y2="17.42"/>
      <line class="cls-5" x1="11.81" y1="17.17" x2="11.81" y2="16.92"/>
      <line class="cls-5" x1="11.03" y1="30.9" x2="11.03" y2="30.65"/>
      <line class="cls-6" x1="11.03" y1="30.15" x2="11.03" y2="17.42"/>
      <line class="cls-5" x1="11.03" y1="17.17" x2="11.03" y2="16.92"/>
      <line class="cls-4" x1="11.03" y1="16.92" x2="11.81" y2="16.92"/>
      <rect class="cls-5" x="3.2" y="23.06" width="4.88" height="1.25" rx=".63" ry=".63"/>
    </g>
    <g>
      <rect class="cls-8" x=".58" y="19.19" width="2.85" height="9.54"/>
      <rect class="cls-8" x="3.43" y="21.76" width="1.1" height="4.32"/>
    </g>
    <g>
      <rect class="cls-8" x="187.41" y="19.19" width="2.85" height="9.54" transform="translate(377.67 47.91) rotate(-180)"/>
      <rect class="cls-8" x="186.31" y="21.76" width="1.1" height="4.32" transform="translate(373.72 47.85) rotate(-180)"/>
    </g>
    <rect class="cls-2" x="169.48" y="38.88" width="11.79" height="31.02"/>
    <rect class="cls-10" x="171.13" y="40.88" width="8.48" height="18.7"/>
    <rect class="cls-5" x="181.58" y="38.58" width="8.19" height="7.4"/>
    <rect class="cls-7" x="183.28" y="12.27" width=".9" height="21.69"/>
    <rect class="cls-7" x="183.26" y="35.12" width=".93" height="13.22"/>
  </g>
</svg>