<?xml version="1.0" encoding="UTF-8"?>
<svg id="Layer_2" data-name="Layer 2" xmlns="http://www.w3.org/2000/svg" xmlns:xlink="http://www.w3.org/1999/xlink" viewBox="0 0 190.05 60.42">
  <defs>
    <style>
      .cls-1 {
        stroke-dasharray: .48 .48;
      }

      .cls-1, .cls-2, .cls-3, .cls-4, .cls-5, .cls-6, .cls-7, .cls-8 {
        stroke: #000;
        stroke-linecap: round;
        stroke-linejoin: round;
        stroke-width: .25px;
      }

      .cls-1, .cls-3, .cls-4, .cls-5, .cls-7 {
        fill: none;
      }

      .cls-2 {
        fill: silver;
        opacity: .54;
      }

      .cls-3, .cls-6, .cls-8 {
        stroke-dasharray: .5 .5;
      }

      .cls-5 {
        stroke-dasharray: .5 .5;
      }

      .cls-6 {
        fill: url(#linear-gradient-2);
      }

      .cls-6, .cls-8 {
        opacity: .55;
      }

      .cls-7 {
        stroke-dasharray: .5 .5;
      }

      .cls-8 {
        fill: url(#linear-gradient);
      }
    </style>
    <linearGradient id="linear-gradient" x1="156.96" y1="18.69" x2="156.96" y2="29.01" gradientUnits="userSpaceOnUse">
      <stop offset=".01" stop-color="#0048ff"/>
      <stop offset=".07" stop-color="#4579ff"/>
      <stop offset=".13" stop-color="#86a8ff"/>
      <stop offset=".18" stop-color="#bacdff"/>
      <stop offset=".23" stop-color="#dfe8ff"/>
      <stop offset=".27" stop-color="#f6f9ff"/>
      <stop offset=".29" stop-color="#fff"/>
      <stop offset=".3" stop-color="#fcfdfe"/>
      <stop offset=".35" stop-color="#c7d7f5"/>
      <stop offset=".41" stop-color="#99b6ed"/>
      <stop offset=".48" stop-color="#6f98e6"/>
      <stop offset=".54" stop-color="#4d80e1"/>
      <stop offset=".61" stop-color="#316cdc"/>
      <stop offset=".69" stop-color="#1b5cd8"/>
      <stop offset=".77" stop-color="#0b51d6"/>
      <stop offset=".86" stop-color="#024bd4"/>
      <stop offset="1" stop-color="#0049d4"/>
    </linearGradient>
    <linearGradient id="linear-gradient-2" x1="129.11" y1="17.24" x2="129.11" y2="30.48" gradientUnits="userSpaceOnUse">
      <stop offset=".01" stop-color="#000"/>
      <stop offset=".07" stop-color="#454545"/>
      <stop offset=".13" stop-color="#868686"/>
      <stop offset=".18" stop-color="#bababa"/>
      <stop offset=".23" stop-color="#dfdfdf"/>
      <stop offset=".27" stop-color="#f6f6f6"/>
      <stop offset=".29" stop-color="#fff"/>
      <stop offset=".3" stop-color="#fcfcfc"/>
      <stop offset=".35" stop-color="#c7c7c7"/>
      <stop offset=".41" stop-color="#999"/>
      <stop offset=".48" stop-color="#6f6f6f"/>
      <stop offset=".54" stop-color="#4d4d4d"/>
      <stop offset=".61" stop-color="#313131"/>
      <stop offset=".69" stop-color="#1b1b1b"/>
      <stop offset=".77" stop-color="#0b0b0b"/>
      <stop offset=".86" stop-color="#020202"/>
      <stop offset="1" stop-color="#000"/>
    </linearGradient>
  </defs>
  <g id="Layer_1-2" data-name="Layer 1">
    <g>
      <g>
        <path class="cls-4" d="M185.33,9.99c0-.17.14-.31.31-.31"/>
        <line class="cls-4" x1="187.93" y1="16.95" x2="187.93" y2="29.18"/>
        <path class="cls-4" d="M187.93,29.18c0,.55-.45.99-.99.99s-.99-.44-.99-.99"/>
        <line class="cls-4" x1="185.94" y1="29.18" x2="185.94" y2="16.95"/>
        <path class="cls-4" d="M185.94,16.95c0-.55.44-.99.99-.99s.99.44.99.99"/>
        <line class="cls-4" x1="185.33" y1="9.99" x2="185.33" y2="33.94"/>
        <path class="cls-4" d="M185.64,34.25c-.17,0-.31-.14-.31-.31"/>
        <line class="cls-4" x1="185.64" y1="34.25" x2="189.31" y2="34.25"/>
        <line class="cls-4" x1="189.31" y1="9.68" x2="185.64" y2="9.68"/>
        <line class="cls-4" x1="189.92" y1="34.25" x2="189.31" y2="34.25"/>
        <path class="cls-4" d="M185.64,46c-.17,0-.31-.1-.31-.22"/>
        <line class="cls-4" x1="187.97" y1="36.09" x2="187.97" y2="44.74"/>
        <path class="cls-4" d="M187.97,44.74c0,.4-.46.73-1.03.73s-1.03-.33-1.03-.73"/>
        <line class="cls-4" x1="185.91" y1="44.74" x2="185.91" y2="36.09"/>
        <path class="cls-4" d="M185.91,36.09c0-.4.46-.73,1.03-.73s1.03.33,1.03.73"/>
        <line class="cls-4" x1="185.64" y1="46" x2="189.31" y2="46"/>
        <line class="cls-4" x1="189.31" y1="34.73" x2="185.64" y2="34.73"/>
        <path class="cls-4" d="M185.33,34.95c0-.12.14-.22.31-.22"/>
        <line class="cls-4" x1="185.33" y1="34.95" x2="185.33" y2="45.78"/>
        <path class="cls-4" d="M189.92,34.3c0,.24-.27.43-.61.43"/>
        <line class="cls-4" x1="189.46" y1="34.3" x2="189.92" y2="34.3"/>
        <path class="cls-4" d="M189.46,34.3c0,.06-.07.11-.15.11"/>
        <line class="cls-4" x1="185.33" y1="34.62" x2="185.33" y2="34.95"/>
        <path class="cls-4" d="M185.91,44.42c0,.4.46.73,1.03.73s1.03-.33,1.03-.73"/>
        <line class="cls-4" x1="183.8" y1="7.46" x2="184.26" y2="7.46"/>
        <line class="cls-4" x1="184.26" y1="7.16" x2="184.26" y2="1.04"/>
        <line class="cls-4" x1="184.26" y1="7.16" x2="184.26" y2="7.47"/>
        <line class="cls-4" x1="183.8" y1="7.46" x2="183.8" y2="7.16"/>
        <line class="cls-4" x1="183.8" y1="7.16" x2="183.8" y2="1.04"/>
        <path class="cls-4" d="M183.8,1.04c0-.51.41-.92.92-.92"/>
        <path class="cls-4" d="M184.26,1.04c0-.25.2-.46.46-.46"/>
        <line class="cls-4" x1="184.72" y1=".58" x2="189" y2=".58"/>
        <path class="cls-4" d="M189,.13c.51,0,.92.41.92.92"/>
        <path class="cls-4" d="M189,.58c.25,0,.46.21.46.46"/>
        <line class="cls-4" x1="184.72" y1=".13" x2="189" y2=".13"/>
        <line class="cls-4" x1="189.46" y1="1.04" x2="189.46" y2="9.22"/>
        <line class="cls-4" x1="189.92" y1="1.04" x2="189.92" y2="9.22"/>
        <line class="cls-4" x1="189.92" y1="9.22" x2="189.92" y2="9.53"/>
        <line class="cls-4" x1="189.46" y1="9.53" x2="189.46" y2="9.22"/>
        <line class="cls-4" x1="189.46" y1="9.53" x2="189.92" y2="9.53"/>
        <line class="cls-4" x1="189.46" y1="46" x2="189.46" y2="45.98"/>
        <line class="cls-4" x1="189.46" y1="34.3" x2="189.46" y2="34.28"/>
        <line class="cls-4" x1="189.46" y1="34.28" x2="189.46" y2="34.25"/>
        <line class="cls-4" x1="189.46" y1="9.68" x2="189.46" y2="9.53"/>
        <path class="cls-4" d="M185.64,34.41c-.17,0-.31.1-.31.22"/>
        <line class="cls-4" x1="189.31" y1="34.41" x2="185.64" y2="34.41"/>
        <line class="cls-4" x1="189.92" y1="9.68" x2="189.92" y2="34.25"/>
        <line class="cls-4" x1="189.31" y1="9.68" x2="189.92" y2="9.68"/>
        <path class="cls-4" d="M189.31,46c.34,0,.61-.19.61-.43"/>
        <line class="cls-4" x1="189.92" y1="34.3" x2="189.92" y2="45.56"/>
        <line class="cls-4" x1="189.92" y1="34.28" x2="189.92" y2="34.3"/>
        <line class="cls-4" x1="189.46" y1="34.28" x2="189.92" y2="34.28"/>
        <line class="cls-4" x1="189.92" y1="46" x2="189.46" y2="46"/>
        <line class="cls-4" x1="189.92" y1="45.56" x2="189.92" y2="46"/>
        <line class="cls-4" x1="189.92" y1="9.53" x2="189.92" y2="9.68"/>
        <line class="cls-4" x1="189.92" y1="34.25" x2="189.92" y2="34.28"/>
        <line class="cls-4" x1="189.31" y1="34.25" x2="189.31" y2="9.68"/>
        <line class="cls-4" x1="189.31" y1="46" x2="189.31" y2="34.73"/>
        <line class="cls-4" x1="189.31" y1="34.73" x2="189.31" y2="34.41"/>
        <line class="cls-4" x1="185.64" y1="34.73" x2="185.64" y2="34.41"/>
      </g>
      <g>
        <path class="cls-4" d="M4.71,9.99c0-.17-.14-.31-.31-.31"/>
        <line class="cls-4" x1="2.11" y1="16.95" x2="2.11" y2="29.18"/>
        <path class="cls-4" d="M2.11,29.18c0,.55.45.99.99.99s.99-.44.99-.99"/>
        <line class="cls-4" x1="4.1" y1="29.18" x2="4.1" y2="16.95"/>
        <path class="cls-4" d="M4.1,16.95c0-.55-.44-.99-.99-.99s-.99.44-.99.99"/>
        <line class="cls-4" x1="4.71" y1="9.99" x2="4.71" y2="33.94"/>
        <path class="cls-4" d="M4.41,34.25c.17,0,.31-.14.31-.31"/>
        <line class="cls-4" x1="4.41" y1="34.25" x2=".74" y2="34.25"/>
        <line class="cls-4" x1=".74" y1="9.68" x2="4.41" y2="9.68"/>
        <line class="cls-4" x1=".13" y1="34.25" x2=".74" y2="34.25"/>
        <path class="cls-4" d="M4.41,46c.17,0,.31-.1.31-.22"/>
        <line class="cls-4" x1="2.07" y1="36.09" x2="2.07" y2="44.74"/>
        <path class="cls-4" d="M2.07,44.74c0,.4.46.73,1.03.73s1.03-.33,1.03-.73"/>
        <line class="cls-4" x1="4.14" y1="44.74" x2="4.14" y2="36.09"/>
        <path class="cls-4" d="M4.14,36.09c0-.4-.46-.73-1.03-.73s-1.03.33-1.03.73"/>
        <line class="cls-4" x1="4.41" y1="46" x2=".74" y2="46"/>
        <line class="cls-4" x1=".74" y1="34.73" x2="4.41" y2="34.73"/>
        <path class="cls-4" d="M4.71,34.95c0-.12-.14-.22-.31-.22"/>
        <line class="cls-4" x1="4.71" y1="34.95" x2="4.71" y2="45.78"/>
        <path class="cls-4" d="M.13,34.3c0,.24.27.43.61.43"/>
        <line class="cls-4" x1=".58" y1="34.3" x2=".13" y2="34.3"/>
        <path class="cls-4" d="M.58,34.3c0,.06.07.11.15.11"/>
        <line class="cls-4" x1="4.71" y1="34.62" x2="4.71" y2="34.95"/>
        <path class="cls-4" d="M4.14,44.42c0,.4-.46.73-1.03.73s-1.03-.33-1.03-.73"/>
        <line class="cls-4" x1="6.24" y1="7.46" x2="5.78" y2="7.46"/>
        <line class="cls-4" x1="5.78" y1="7.16" x2="5.78" y2="1.04"/>
        <line class="cls-4" x1="5.78" y1="7.16" x2="5.78" y2="7.47"/>
        <line class="cls-4" x1="6.24" y1="7.46" x2="6.24" y2="7.16"/>
        <line class="cls-4" x1="6.24" y1="7.16" x2="6.24" y2="1.04"/>
        <path class="cls-4" d="M6.24,1.04c0-.51-.41-.92-.92-.92"/>
        <path class="cls-4" d="M5.78,1.04c0-.25-.2-.46-.46-.46"/>
        <line class="cls-4" x1="5.32" y1=".58" x2="1.04" y2=".58"/>
        <path class="cls-4" d="M1.04.12c-.51,0-.92.41-.92.92"/>
        <path class="cls-4" d="M1.04.58c-.25,0-.46.21-.46.46"/>
        <line class="cls-4" x1="5.32" y1=".13" x2="1.04" y2=".12"/>
        <line class="cls-4" x1=".58" y1="1.04" x2=".58" y2="9.22"/>
        <line class="cls-4" x1=".13" y1="1.04" x2=".13" y2="9.22"/>
        <line class="cls-4" x1=".13" y1="9.22" x2=".13" y2="9.53"/>
        <line class="cls-4" x1=".58" y1="9.53" x2=".58" y2="9.22"/>
        <line class="cls-4" x1=".58" y1="9.53" x2=".13" y2="9.53"/>
        <line class="cls-4" x1=".58" y1="46" x2=".58" y2="45.98"/>
        <line class="cls-4" x1=".58" y1="34.3" x2=".58" y2="34.28"/>
        <line class="cls-4" x1=".58" y1="34.28" x2=".58" y2="34.25"/>
        <line class="cls-4" x1=".58" y1="9.68" x2=".58" y2="9.53"/>
        <path class="cls-4" d="M4.41,34.41c.17,0,.31.1.31.22"/>
        <line class="cls-4" x1=".74" y1="34.41" x2="4.41" y2="34.41"/>
        <line class="cls-4" x1=".13" y1="9.68" x2=".13" y2="34.25"/>
        <line class="cls-4" x1=".74" y1="9.68" x2=".13" y2="9.68"/>
        <path class="cls-4" d="M.74,46c-.34,0-.61-.19-.61-.43"/>
        <line class="cls-4" x1=".13" y1="34.3" x2=".13" y2="45.56"/>
        <line class="cls-4" x1=".13" y1="34.28" x2=".13" y2="34.3"/>
        <line class="cls-4" x1=".58" y1="34.28" x2=".13" y2="34.28"/>
        <line class="cls-4" x1=".13" y1="46" x2=".58" y2="46"/>
        <line class="cls-4" x1=".13" y1="45.56" x2=".13" y2="46"/>
        <line class="cls-4" x1=".13" y1="9.53" x2=".13" y2="9.68"/>
        <line class="cls-4" x1=".13" y1="34.25" x2=".13" y2="34.28"/>
        <line class="cls-4" x1=".74" y1="34.25" x2=".74" y2="9.68"/>
        <line class="cls-4" x1=".74" y1="46" x2=".74" y2="34.73"/>
        <line class="cls-4" x1=".74" y1="34.73" x2=".74" y2="34.41"/>
        <line class="cls-4" x1="4.41" y1="34.73" x2="4.41" y2="34.41"/>
      </g>
      <g>
        <line class="cls-4" x1=".2" y1="47.55" x2=".2" y2="60.29"/>
        <line class="cls-4" x1="7.18" y1="54.23" x2="185.14" y2="54.23"/>
        <line class="cls-4" x1="189.92" y1="49.11" x2="189.92" y2="60.29"/>
        <polygon points=".2 54.23 8.94 55.7 8.94 52.75 .2 54.23"/>
        <polygon points="189.86 54.23 181.12 52.75 181.12 55.7 189.86 54.23"/>
      </g>
      <g>
        <line class="cls-4" x1="5.02" y1="31.57" x2="4.1" y2="31.57"/>
        <line class="cls-4" x1="4.1" y1="32.12" x2="4.1" y2="31.57"/>
        <line class="cls-4" x1="5.02" y1="31.57" x2="5.02" y2="32.12"/>
        <line class="cls-4" x1="4.1" y1="30.14" x2="4.94" y2="30.14"/>
        <line class="cls-4" x1="4.1" y1="31.11" x2="4.1" y2="30.14"/>
        <line class="cls-4" x1="5.02" y1="30.08" x2="5.02" y2="31.11"/>
        <path class="cls-4" d="M5.02,30.08s0,.01,0,.02c0,0,0,.01-.01.02,0,0-.01.01-.02.01,0,0-.01,0-.02,0,0,0-.01,0-.02,0"/>
        <line class="cls-4" x1="4.1" y1="31.57" x2="4.1" y2="31.11"/>
        <line class="cls-4" x1="5.02" y1="31.57" x2="5.02" y2="31.11"/>
        <line class="cls-4" x1="3.95" y1="16.64" x2="3.95" y2="16.1"/>
        <line class="cls-4" x1="5.02" y1="16.64" x2="3.95" y2="16.64"/>
        <line class="cls-4" x1="5.02" y1="16.1" x2="5.02" y2="16.64"/>
        <line class="cls-4" x1="3.95" y1="18.02" x2="3.95" y2="17.06"/>
        <line class="cls-4" x1="4.94" y1="18.02" x2="3.95" y2="18.02"/>
        <path class="cls-4" d="M4.94,18.02s.02,0,.03,0c0,0,.02,0,.02.01,0,0,.01.01.02.02,0,0,0,.01,0,.02h0"/>
        <line class="cls-4" x1="5.02" y1="17.06" x2="5.02" y2="18.08"/>
        <line class="cls-4" x1="3.95" y1="17.06" x2="3.95" y2="16.64"/>
        <line class="cls-4" x1="5.02" y1="17.06" x2="5.02" y2="16.64"/>
        <line class="cls-4" x1="5.02" y1="30.08" x2="5.02" y2="18.08"/>
        <line class="cls-4" x1="1.35" y1="27.56" x2="1.35" y2="20.71"/>
        <line class="cls-4" x1="2.42" y1="30.13" x2="4.1" y2="30.13"/>
        <line class="cls-4" x1="4.1" y1="30.14" x2="4.1" y2="30.13"/>
        <line class="cls-4" x1="3.95" y1="18.02" x2="3.95" y2="18.02"/>
        <line class="cls-4" x1="3.95" y1="18.02" x2="2.42" y2="18.02"/>
        <line class="cls-4" x1="2.42" y1="16.59" x2="3.95" y2="16.59"/>
        <line class="cls-4" x1="4.1" y1="31.65" x2="2.42" y2="31.65"/>
        <line class="cls-4" x1="1.35" y1="31.83" x2="1.35" y2="32.12"/>
        <line class="cls-4" x1="1.35" y1="31.54" x2="1.35" y2="31.83"/>
        <line class="cls-4" x1="1.35" y1="31.5" x2="1.35" y2="31.54"/>
        <line class="cls-4" x1="1.35" y1="30.97" x2="1.35" y2="31.5"/>
        <line class="cls-4" x1="1.35" y1="30.83" x2="1.35" y2="30.97"/>
        <line class="cls-4" x1="1.35" y1="30.78" x2="1.35" y2="30.83"/>
        <line class="cls-4" x1="1.35" y1="29.38" x2="1.35" y2="30.78"/>
        <line class="cls-4" x1="1.35" y1="27.58" x2="1.35" y2="29.38"/>
        <line class="cls-4" x1="1.35" y1="27.58" x2="1.35" y2="27.56"/>
        <line class="cls-4" x1="1.35" y1="20.71" x2="1.35" y2="20.69"/>
        <line class="cls-4" x1="1.35" y1="18.89" x2="1.35" y2="20.69"/>
        <line class="cls-4" x1="1.35" y1="17.48" x2="1.35" y2="18.89"/>
        <line class="cls-4" x1="1.35" y1="17.44" x2="1.35" y2="17.48"/>
        <line class="cls-4" x1="1.35" y1="17.3" x2="1.35" y2="17.44"/>
        <line class="cls-4" x1="1.35" y1="17.3" x2="1.35" y2="16.77"/>
        <line class="cls-4" x1="1.35" y1="16.73" x2="1.35" y2="16.77"/>
        <line class="cls-4" x1="1.35" y1="16.43" x2="1.35" y2="16.73"/>
        <line class="cls-4" x1="1.35" y1="16.1" x2="1.35" y2="16.43"/>
        <line class="cls-4" x1="2.34" y1="28.07" x2="2.34" y2="29.49"/>
        <line class="cls-4" x1="2.34" y1="29.49" x2="2.34" y2="30.67"/>
        <line class="cls-4" x1="2.34" y1="30.67" x2="2.34" y2="30.72"/>
        <line class="cls-4" x1="2.34" y1="30.72" x2="2.34" y2="30.97"/>
        <line class="cls-4" x1="2.34" y1="30.97" x2="2.34" y2="31.39"/>
        <line class="cls-4" x1="2.34" y1="31.39" x2="2.34" y2="31.43"/>
        <line class="cls-4" x1="2.34" y1="31.43" x2="2.34" y2="31.68"/>
        <line class="cls-4" x1="2.19" y1="29.38" x2="1.35" y2="29.38"/>
        <line class="cls-4" x1="2.19" y1="30.83" x2="1.35" y2="30.83"/>
        <path class="cls-4" d="M2.34,30.72c0,.06-.07.11-.15.11"/>
        <line class="cls-4" x1="2.19" y1="31.5" x2="1.35" y2="31.5"/>
        <path class="cls-4" d="M2.34,31.39c0,.06-.07.11-.15.11"/>
        <line class="cls-4" x1="2.34" y1="18.78" x2="2.34" y2="20.2"/>
        <line class="cls-4" x1="2.34" y1="16.59" x2="2.34" y2="16.83"/>
        <line class="cls-4" x1="2.34" y1="16.83" x2="2.34" y2="16.88"/>
        <line class="cls-4" x1="2.34" y1="17.3" x2="2.34" y2="16.88"/>
        <line class="cls-4" x1="2.34" y1="17.3" x2="2.34" y2="17.55"/>
        <line class="cls-4" x1="2.34" y1="17.55" x2="2.34" y2="17.59"/>
        <line class="cls-4" x1="2.34" y1="17.59" x2="2.34" y2="18.78"/>
        <line class="cls-4" x1="2.19" y1="18.89" x2="1.35" y2="18.89"/>
        <line class="cls-4" x1="2.19" y1="16.77" x2="1.35" y2="16.77"/>
        <path class="cls-4" d="M2.34,16.88c0-.06-.07-.11-.15-.11"/>
        <line class="cls-4" x1="2.19" y1="17.44" x2="1.35" y2="17.44"/>
        <path class="cls-4" d="M2.34,17.55c0-.06-.07-.11-.15-.11"/>
        <line class="cls-4" x1="2.42" y1="16.1" x2="2.42" y2="16.64"/>
        <line class="cls-4" x1="2.42" y1="16.64" x2="2.34" y2="16.64"/>
        <path class="cls-4" d="M2.34,17.95h0s0,.02,0,.03c0,0,.01.01.02.02,0,0,.02,0,.03.01,0,0,.02,0,.03,0"/>
        <line class="cls-4" x1="2.42" y1="17.06" x2="2.42" y2="18.02"/>
        <line class="cls-4" x1="2.42" y1="16.64" x2="2.42" y2="17.06"/>
        <line class="cls-4" x1="2.42" y1="31.57" x2="2.42" y2="32.12"/>
        <line class="cls-4" x1="2.42" y1="31.57" x2="2.34" y2="31.57"/>
        <line class="cls-4" x1="2.42" y1="30.14" x2="2.42" y2="31.11"/>
        <path class="cls-4" d="M2.42,30.14h0s-.02,0-.03,0c0,0-.02,0-.02.01,0,0-.01.01-.01.02,0,0,0,.02,0,.02"/>
        <line class="cls-4" x1="2.42" y1="31.11" x2="2.42" y2="31.57"/>
        <line class="cls-4" x1="3.95" y1="17.03" x2="2.42" y2="17.03"/>
        <line class="cls-4" x1="2.42" y1="18.02" x2="2.42" y2="18.03"/>
        <path class="cls-4" d="M2.65,17.51c0,.12.24.21.53.21s.54-.09.54-.21-.24-.21-.54-.21-.53.09-.53.21Z"/>
        <line class="cls-4" x1="2.42" y1="31.21" x2="4.1" y2="31.21"/>
        <line class="cls-4" x1="2.42" y1="30.13" x2="2.42" y2="30.14"/>
        <path class="cls-4" d="M3.72,30.7c0-.12-.24-.22-.54-.22s-.54.1-.54.22.24.22.54.22.54-.1.54-.22Z"/>
        <path class="cls-4" d="M2.19,29.38s.04,0,.06,0c.02,0,.03.01.05.02.01,0,.03.02.03.03,0,.01.01.03.01.04"/>
        <path class="cls-4" d="M2.19,18.89s.04,0,.06,0c.02,0,.03-.01.05-.02.01,0,.03-.02.03-.03,0-.01.01-.03.01-.04"/>
        <line class="cls-4" x1="5.02" y1="32.12" x2="4.1" y2="32.12"/>
        <line class="cls-4" x1="5.02" y1="31.11" x2="4.1" y2="31.11"/>
        <line class="cls-4" x1="5.02" y1="16.1" x2="3.95" y2="16.1"/>
        <line class="cls-4" x1="5.02" y1="17.06" x2="3.95" y2="17.06"/>
        <line class="cls-4" x1="3.95" y1="16.49" x2="2.42" y2="16.49"/>
        <line class="cls-4" x1="4.1" y1="31.78" x2="2.42" y2="31.78"/>
        <line class="cls-4" x1="2.19" y1="31.83" x2="1.35" y2="31.83"/>
        <line class="cls-4" x1="2.19" y1="16.43" x2="1.35" y2="16.43"/>
        <line class="cls-4" x1="2.42" y1="16.1" x2="1.35" y2="16.1"/>
        <line class="cls-4" x1="2.42" y1="17.06" x2="2.34" y2="17.06"/>
        <line class="cls-4" x1="2.42" y1="32.12" x2="1.35" y2="32.12"/>
        <line class="cls-4" x1="2.42" y1="31.11" x2="2.34" y2="31.11"/>
        <path class="cls-4" d="M2.34,31.68c0,.08-.07.15-.15.15"/>
        <path class="cls-4" d="M2.19,16.43c.08,0,.15.07.15.15"/>
        <line class="cls-4" x1="4.94" y1="30.14" x2="4.94" y2="18.02"/>
        <path class="cls-4" d="M2.42,20.24s0,.09-.02.13c0,.04-.02.09-.04.13-.02.04-.04.09-.06.12-.01.02-.03.04-.05.05,0,0-.02.02-.03.02-.01,0-.02,0-.04,0"/>
        <line class="cls-4" x1="2.19" y1="20.71" x2="1.35" y2="20.71"/>
        <line class="cls-4" x1="1.35" y1="27.56" x2="2.19" y2="27.56"/>
        <path class="cls-4" d="M2.19,27.56s.03,0,.04.01c.01,0,.02.01.03.02.02.02.03.04.05.06.03.04.05.08.06.12.02.04.03.09.04.13,0,.04.01.09.01.13"/>
        <line class="cls-4" x1="2.42" y1="28.03" x2="2.42" y2="30.13"/>
        <line class="cls-4" x1="2.42" y1="18.02" x2="2.42" y2="20.24"/>
        <line class="cls-4" x1="2.19" y1="27.58" x2="2.19" y2="29.38"/>
        <line class="cls-4" x1="2.19" y1="27.58" x2="1.35" y2="27.58"/>
        <line class="cls-4" x1="2.19" y1="30.78" x2="1.35" y2="30.78"/>
        <line class="cls-4" x1="2.19" y1="29.38" x2="2.19" y2="30.78"/>
        <line class="cls-4" x1="2.19" y1="30.83" x2="2.19" y2="30.78"/>
        <line class="cls-4" x1="2.34" y1="30.97" x2="1.35" y2="30.97"/>
        <line class="cls-4" x1="2.19" y1="31.54" x2="1.35" y2="31.54"/>
        <line class="cls-4" x1="2.19" y1="31.54" x2="2.19" y2="31.5"/>
        <line class="cls-4" x1="2.19" y1="31.54" x2="2.19" y2="31.83"/>
        <line class="cls-4" x1="1.35" y1="20.69" x2="2.19" y2="20.69"/>
        <line class="cls-4" x1="2.19" y1="18.89" x2="2.19" y2="20.69"/>
        <line class="cls-4" x1="2.19" y1="16.73" x2="1.35" y2="16.73"/>
        <line class="cls-4" x1="2.19" y1="16.43" x2="2.19" y2="16.73"/>
        <line class="cls-4" x1="2.19" y1="16.77" x2="2.19" y2="16.73"/>
        <line class="cls-4" x1="2.34" y1="17.3" x2="1.35" y2="17.3"/>
        <line class="cls-4" x1="2.19" y1="17.48" x2="1.35" y2="17.48"/>
        <line class="cls-4" x1="2.19" y1="17.48" x2="2.19" y2="17.44"/>
        <line class="cls-4" x1="2.19" y1="17.48" x2="2.19" y2="18.89"/>
        <path class="cls-4" d="M2.19,31.54c.08,0,.15-.05.15-.11"/>
        <path class="cls-4" d="M2.34,28.07s0-.09,0-.13c0-.04-.01-.09-.03-.13-.01-.04-.02-.09-.04-.13,0-.02-.02-.04-.03-.06,0,0-.01-.02-.02-.03,0,0,0,0-.01-.01,0,0-.01,0-.02,0"/>
        <path class="cls-4" d="M2.34,30.67c0,.06-.07.11-.15.11"/>
        <path class="cls-4" d="M2.19,20.69s.01,0,.02,0c0,0,0,0,0,0,0,0,0,0,0,0,0,0,0-.01.01-.02,0,0,0,0,0,0,0,0,0-.01.01-.02,0,0,.01-.02.01-.03,0,0,0,0,0,0,0-.02.01-.04.02-.06,0-.02.01-.04.02-.07,0,0,0,0,0,0,0-.02,0-.04.01-.06,0-.02,0-.04.01-.07h0s.01-.09.01-.13"/>
        <path class="cls-4" d="M2.19,17.48c.08,0,.15.05.15.11"/>
        <path class="cls-4" d="M2.34,16.83c0-.06-.07-.11-.15-.11"/>
        <path class="cls-4" d="M2.42,20.24s-.08-.02-.08-.04"/>
        <line class="cls-4" x1="2.19" y1="20.71" x2="2.19" y2="20.69"/>
        <path class="cls-4" d="M2.34,28.07s.03-.04.08-.04"/>
        <line class="cls-4" x1="2.19" y1="27.58" x2="2.19" y2="27.56"/>
        <line class="cls-4" x1="1.35" y1="15.34" x2="1.35" y2="9.22"/>
        <line class="cls-4" x1="1.35" y1="15.34" x2="1.35" y2="32.93"/>
        <line class="cls-4" x1="1.35" y1="39.04" x2="1.35" y2="32.92"/>
        <line class="cls-4" x1="1.35" y1="39.04" x2=".74" y2="39.04"/>
        <line class="cls-4" x1=".74" y1="9.22" x2="1.35" y2="9.22"/>
        <line class="cls-4" x1=".74" y1="32.93" x2=".74" y2="39.04"/>
        <line class="cls-4" x1=".74" y1="9.22" x2=".74" y2="15.34"/>
        <line class="cls-4" x1=".74" y1="15.34" x2=".74" y2="32.93"/>
        <line class="cls-4" x1=".74" y1="32.93" x2="1.35" y2="32.93"/>
        <line class="cls-4" x1="1.35" y1="15.34" x2=".74" y2="15.34"/>
      </g>
      <g>
        <line class="cls-4" x1="5.6" y1="22.51" x2="5.6" y2="23.11"/>
        <line class="cls-4" x1="5.6" y1="24.81" x2="5.6" y2="25.41"/>
        <line class="cls-4" x1="5.14" y1="25.41" x2="5.14" y2="24.81"/>
        <line class="cls-4" x1="5.14" y1="23.11" x2="5.14" y2="22.51"/>
        <line class="cls-4" x1="5.14" y1="22.51" x2="5.26" y2="22.51"/>
        <line class="cls-4" x1="5.45" y1="22.51" x2="5.6" y2="22.51"/>
        <line class="cls-4" x1="5.6" y1="23.11" x2="5.45" y2="23.11"/>
        <line class="cls-4" x1="5.26" y1="23.11" x2="5.14" y2="23.11"/>
        <line class="cls-4" x1="5.6" y1="25.41" x2="5.45" y2="25.41"/>
        <line class="cls-4" x1="5.26" y1="25.41" x2="5.14" y2="25.41"/>
        <line class="cls-4" x1="5.14" y1="24.81" x2="5.26" y2="24.81"/>
        <line class="cls-4" x1="5.45" y1="24.81" x2="5.6" y2="24.81"/>
        <line class="cls-4" x1="9.12" y1="25.41" x2="5.6" y2="25.41"/>
        <line class="cls-4" x1="5.14" y1="25.41" x2="1.78" y2="25.41"/>
        <line class="cls-4" x1="5.14" y1="22.51" x2="1.78" y2="22.51"/>
        <line class="cls-4" x1="9.12" y1="22.51" x2="5.6" y2="22.51"/>
        <line class="cls-4" x1="1.78" y1="25.41" x2="1.78" y2="22.51"/>
        <line class="cls-4" x1="5.45" y1="26.19" x2="5.45" y2="22.22"/>
        <line class="cls-4" x1="5.26" y1="26.19" x2="5.26" y2="22.22"/>
        <line class="cls-4" x1="5.45" y1="21.67" x2="5.45" y2="21.51"/>
        <line class="cls-4" x1="5.45" y1="21.8" x2="5.45" y2="21.67"/>
        <line class="cls-4" x1="5.45" y1="21.8" x2="5.45" y2="22.11"/>
        <line class="cls-4" x1="5.45" y1="22.11" x2="5.45" y2="22.22"/>
        <line class="cls-4" x1="5.26" y1="21.8" x2="5.26" y2="22.11"/>
        <line class="cls-4" x1="5.26" y1="21.67" x2="5.26" y2="21.8"/>
        <line class="cls-4" x1="5.26" y1="21.67" x2="5.26" y2="21.51"/>
        <line class="cls-4" x1="5.26" y1="22.22" x2="5.26" y2="22.11"/>
        <line class="cls-4" x1="5.45" y1="21.51" x2="5.26" y2="21.51"/>
        <line class="cls-4" x1="5.45" y1="26.19" x2="5.26" y2="26.19"/>
        <line class="cls-4" x1=".25" y1="23.19" x2=".25" y2="24.72"/>
        <line class="cls-4" x1=".2" y1="23.19" x2=".2" y2="24.72"/>
        <path class="cls-4" d="M1.78,24.17s0,0,0,0c0-.03,0-.07,0-.1,0-.04,0-.07,0-.11,0-.04,0-.08,0-.12,0-.04,0-.07,0-.09,0-.03,0-.05,0-.06,0-.01,0-.02,0-.02"/>
        <path class="cls-4" d="M1.67,24.26s0-.01,0-.02c0-.02,0-.04,0-.07,0-.03,0-.06,0-.1,0-.04,0-.07,0-.11,0-.04,0-.08,0-.12,0-.04,0-.07,0-.1,0-.03,0-.05,0-.07,0-.01,0-.02,0-.02"/>
        <path class="cls-4" d="M1.55,24.26s0-.01,0-.02c0-.01,0-.04,0-.07,0-.03,0-.06,0-.1,0-.04,0-.07,0-.11,0-.04,0-.08,0-.12,0-.04,0-.07,0-.1,0-.03,0-.05,0-.07,0-.01,0-.02,0-.02"/>
        <path class="cls-4" d="M1.42,24.26s0-.01,0-.02c0-.01,0-.04,0-.07,0-.03,0-.06,0-.1,0-.04,0-.07,0-.11,0-.04,0-.08,0-.12,0-.04,0-.07,0-.1,0-.03,0-.05,0-.07,0-.01,0-.02,0-.02"/>
        <path class="cls-4" d="M1.3,24.26s0-.01,0-.02c0-.01,0-.04,0-.07,0-.03,0-.06,0-.1s0-.07,0-.11c0-.04,0-.08,0-.12,0-.04,0-.07,0-.1,0-.03,0-.05,0-.07,0-.01,0-.02,0-.02"/>
        <path class="cls-4" d="M1.18,24.26s0-.01,0-.02c0-.02,0-.04,0-.07,0-.03,0-.06,0-.1,0-.04,0-.07,0-.11,0-.04,0-.08,0-.12,0-.04,0-.07,0-.1,0-.03,0-.05,0-.07,0-.01,0-.02,0-.02"/>
        <path class="cls-4" d="M1.06,24.26s0-.01,0-.02c0-.02,0-.04,0-.07,0-.03,0-.06,0-.1,0-.04,0-.07,0-.11,0-.04,0-.08,0-.12,0-.03,0-.07,0-.1,0-.03,0-.05,0-.07,0-.01,0-.02,0-.02"/>
        <path class="cls-4" d="M.93,24.26s0-.01,0-.02c0-.02,0-.04,0-.07,0-.03,0-.06,0-.1,0-.04,0-.07,0-.11,0-.04,0-.08,0-.12,0-.04,0-.07,0-.1,0-.03,0-.05,0-.07,0-.01,0-.02,0-.02"/>
        <path class="cls-4" d="M.81,24.26s0-.01,0-.02c0-.02,0-.04,0-.07,0-.03,0-.06,0-.1,0-.04,0-.07,0-.11,0-.04,0-.08,0-.12,0-.04,0-.07,0-.1,0-.03,0-.05,0-.07,0-.01,0-.02,0-.02"/>
        <path class="cls-4" d="M1.72,23.66s0,0,0,0c0,0,0,.02,0,.05,0,.02,0,.05,0,.08,0,.03,0,.07,0,.11,0,.04,0,.08,0,.12,0,.04,0,.08,0,.11,0,.03,0,.06,0,.08,0,.02,0,.04,0,.04,0,0,0,0,0,0"/>
        <path class="cls-4" d="M1.6,23.66s0,0,0,0c0,.01,0,.03,0,.06,0,.02,0,.05,0,.09,0,.04,0,.07,0,.11,0,.04,0,.08,0,.12,0,.04,0,.07,0,.11,0,.03,0,.06,0,.08,0,.02,0,.03,0,.04,0,0,0,0,0,0"/>
        <path class="cls-4" d="M1.47,23.66s0,0,0,.01c0,.01,0,.03,0,.06,0,.02,0,.06,0,.09,0,.04,0,.07,0,.12,0,.04,0,.08,0,.11,0,.04,0,.07,0,.1,0,.03,0,.05,0,.07,0,.02,0,.03,0,.03,0,0,0,0,0,0"/>
        <path class="cls-4" d="M1.35,23.66s0,0,0,.02c0,.01,0,.04,0,.06,0,.03,0,.06,0,.09,0,.04,0,.08,0,.12,0,.04,0,.08,0,.11,0,.04,0,.07,0,.1,0,.03,0,.05,0,.07,0,.02,0,.03,0,.03,0,0,0,0,0,0"/>
        <path class="cls-4" d="M1.23,23.66s0,0,0,.02c0,.01,0,.04,0,.06,0,.03,0,.06,0,.09,0,.04,0,.08,0,.12,0,.04,0,.08,0,.11,0,.04,0,.07,0,.1,0,.03,0,.05,0,.07,0,.02,0,.03,0,.03"/>
        <path class="cls-4" d="M1.11,23.66s0,0,0,.02c0,.01,0,.04,0,.07,0,.03,0,.06,0,.09,0,.04,0,.08,0,.12,0,.04,0,.08,0,.11,0,.04,0,.07,0,.1,0,.03,0,.05,0,.07,0,.02,0,.03,0,.03"/>
        <path class="cls-4" d="M.98,23.66s0,0,0,.02c0,.01,0,.04,0,.07,0,.03,0,.06,0,.1,0,.04,0,.08,0,.12,0,.04,0,.08,0,.11,0,.04,0,.07,0,.1,0,.03,0,.05,0,.07,0,.02,0,.02,0,.02"/>
        <path class="cls-4" d="M.86,23.66s0,.01,0,.02c0,.01,0,.04,0,.07,0,.03,0,.06,0,.1,0,.04,0,.08,0,.12,0,.04,0,.08,0,.11,0,.04,0,.07,0,.1,0,.03,0,.05,0,.07,0,.02,0,.02,0,.02"/>
        <path class="cls-4" d="M.74,23.66s0,.01,0,.02c0,.01,0,.04,0,.07,0,.03,0,.06,0,.1,0,.04,0,.08,0,.12,0,.04,0,.08,0,.11,0,.04,0,.07,0,.1,0,.03,0,.05,0,.07,0,.01,0,.02,0,.02"/>
        <path class="cls-4" d="M1.78,23.58s0,0,0,0"/>
        <path class="cls-4" d="M1.65,23.58s0,0,0,0c0,.01,0,.03,0,.06,0,.03,0,.06,0,.1,0,.04,0,.09,0,.14,0,.05,0,.1,0,.15,0,.05,0,.1,0,.14,0,.04,0,.08,0,.1,0,.03,0,.05,0,.06,0,0,0,0,0,0"/>
        <path class="cls-4" d="M1.53,23.58s0,0,0,.01c0,.01,0,.04,0,.07,0,.03,0,.07,0,.11,0,.04,0,.09,0,.14,0,.05,0,.1,0,.15,0,.05,0,.1,0,.13,0,.04,0,.07,0,.1,0,.02,0,.04,0,.05,0,0,0,0,0,0"/>
        <path class="cls-4" d="M1.41,23.58h0s0,0,0,.02c0,.01,0,.04,0,.07,0,.03,0,.07,0,.11,0,.05,0,.09,0,.15,0,.05,0,.1,0,.14,0,.05,0,.09,0,.13,0,.04,0,.07,0,.09,0,.02,0,.04,0,.04t0,0"/>
        <path class="cls-4" d="M1.29,23.58s0,0,0,0c0,0,0,0,0,.02,0,.02,0,.04,0,.08,0,.03,0,.07,0,.12,0,.05,0,.1,0,.15,0,.05,0,.1,0,.14,0,.05,0,.09,0,.13,0,.04,0,.07,0,.09,0,.02,0,.03,0,.04h0"/>
        <path class="cls-4" d="M1.16,23.58s0,0,0,0c0,0,0,0,0,.02,0,.02,0,.05,0,.08,0,.03,0,.07,0,.12,0,.05,0,.1,0,.15,0,.05,0,.1,0,.14,0,.05,0,.09,0,.13,0,.04,0,.06,0,.08,0,.02,0,.03,0,.03h0"/>
        <path class="cls-4" d="M1.04,23.58h0s0,0,0,.03c0,.02,0,.05,0,.08,0,.03,0,.07,0,.12,0,.05,0,.1,0,.15,0,.05,0,.1,0,.14,0,.05,0,.09,0,.13,0,.04,0,.06,0,.08,0,.02,0,.03,0,.03"/>
        <path class="cls-4" d="M.92,23.58s0,0,0,0c0,0,0,0,0,.03,0,.02,0,.05,0,.08,0,.04,0,.08,0,.12,0,.05,0,.1,0,.15,0,.05,0,.1,0,.14,0,.05,0,.09,0,.13,0,.03,0,.06,0,.08,0,.02,0,.03,0,.03"/>
        <path class="cls-4" d="M.8,23.58s0,0,0,0c0,0,0,0,0,.03,0,.02,0,.05,0,.08,0,.04,0,.08,0,.12,0,.05,0,.1,0,.15,0,.05,0,.1,0,.14,0,.05,0,.09,0,.13,0,.03,0,.06,0,.08,0,.02,0,.03,0,.03"/>
        <path class="cls-4" d="M.71,23.96h0c0,.05,0,.1,0,.15,0,.05,0,.09,0,.13,0,.03,0,.06,0,.08,0,.02,0,.03,0,.03"/>
        <path class="cls-4" d="M1.73,24.34s0,0,0-.01c0-.01,0-.04,0-.07,0-.03,0-.07,0-.11,0-.04,0-.09,0-.14,0-.05,0-.1,0-.15,0-.05,0-.09,0-.13,0-.04,0-.07,0-.1,0-.03,0-.04,0-.05,0,0,0,0,0,0"/>
        <path class="cls-4" d="M1.61,24.34s0,0,0,0c0-.01,0-.03,0-.06,0-.03,0-.07,0-.11,0-.04,0-.09,0-.14,0-.05,0-.1,0-.15,0-.05,0-.1,0-.14,0-.04,0-.08,0-.1,0-.03,0-.05,0-.06,0,0,0,0,0,0"/>
        <path class="cls-4" d="M1.49,24.34s0,0,0,0c0,0,0-.03,0-.05,0-.03,0-.06,0-.1,0-.04,0-.09,0-.14,0-.05,0-.1,0-.15,0-.05,0-.1,0-.14,0-.04,0-.08,0-.11,0-.03,0-.05,0-.07,0,0,0-.01,0-.01"/>
        <path class="cls-4" d="M1.37,24.34s0,0,0,0c0,0,0-.02,0-.04,0-.02,0-.05,0-.09,0-.04,0-.08,0-.13,0-.05,0-.1,0-.15,0-.05,0-.1,0-.14,0-.04,0-.08,0-.11,0-.03,0-.06,0-.07,0-.01,0-.02,0-.02"/>
        <path class="cls-4" d="M1.24,24.34s0,0,0,0c0,0,0-.02,0-.04,0-.02,0-.05,0-.09,0-.04,0-.08,0-.13,0-.05,0-.1,0-.14,0-.05,0-.1,0-.15,0-.04,0-.08,0-.12,0-.04,0-.06,0-.08,0-.01,0-.02,0-.02"/>
        <path class="cls-4" d="M1.12,24.34s0,0,0,0c0,0,0-.01,0-.03s0-.05,0-.09c0-.04,0-.08,0-.13,0-.05,0-.09,0-.14,0-.05,0-.1,0-.15,0-.04,0-.08,0-.12,0-.04,0-.06,0-.08,0-.02,0-.02,0-.02"/>
        <path class="cls-4" d="M1,24.34s0,0,0,0c0,0,0-.01,0-.03,0-.02,0-.05,0-.08,0-.04,0-.08,0-.13,0-.05,0-.1,0-.14,0-.05,0-.1,0-.15,0-.05,0-.09,0-.12,0-.04,0-.06,0-.08,0-.02,0-.03,0-.03"/>
        <path class="cls-4" d="M.88,24.34s0,0,0,0c0,0,0,0,0-.03,0-.02,0-.05,0-.08,0-.04,0-.08,0-.13,0-.05,0-.1,0-.14,0-.05,0-.1,0-.15,0-.04,0-.09,0-.12,0-.04,0-.06,0-.08,0-.02,0-.03,0-.03"/>
        <path class="cls-4" d="M.75,24.34s0,0,0,0c0,0,0,0,0-.03,0-.02,0-.05,0-.08,0-.04,0-.08,0-.13,0-.04,0-.09,0-.14,0-.05,0-.1,0-.15,0-.05,0-.09,0-.12"/>
        <line class="cls-4" x1=".48" y1="24.49" x2=".25" y2="24.72"/>
        <line class="cls-4" x1=".48" y1="23.42" x2=".25" y2="23.19"/>
        <line class="cls-4" x1=".25" y1="24.72" x2=".2" y2="24.72"/>
        <line class="cls-4" x1=".25" y1="23.19" x2=".2" y2="23.19"/>
        <line class="cls-4" x1="1.67" y1="24.26" x2="1.65" y2="24.26"/>
        <line class="cls-4" x1="1.55" y1="24.26" x2="1.53" y2="24.26"/>
        <line class="cls-4" x1="1.42" y1="24.26" x2="1.41" y2="24.26"/>
        <line class="cls-4" x1="1.3" y1="24.26" x2="1.29" y2="24.26"/>
        <line class="cls-4" x1="1.18" y1="24.26" x2="1.17" y2="24.26"/>
        <line class="cls-4" x1="1.06" y1="24.26" x2="1.04" y2="24.26"/>
        <line class="cls-4" x1=".93" y1="24.26" x2=".92" y2="24.26"/>
        <line class="cls-4" x1=".81" y1="24.26" x2=".8" y2="24.26"/>
        <line class="cls-4" x1="1.73" y1="23.66" x2="1.72" y2="23.66"/>
        <line class="cls-4" x1="1.61" y1="23.66" x2="1.59" y2="23.66"/>
        <line class="cls-4" x1="1.49" y1="23.66" x2="1.47" y2="23.66"/>
        <line class="cls-4" x1="1.36" y1="23.66" x2="1.35" y2="23.66"/>
        <line class="cls-4" x1="1.24" y1="23.66" x2="1.23" y2="23.66"/>
        <line class="cls-4" x1="1.12" y1="23.66" x2="1.11" y2="23.66"/>
        <line class="cls-4" x1="1" y1="23.66" x2=".98" y2="23.66"/>
        <line class="cls-4" x1=".87" y1="23.66" x2=".86" y2="23.66"/>
        <line class="cls-4" x1=".75" y1="23.66" x2=".74" y2="23.66"/>
        <line class="cls-4" x1=".8" y1="23.58" x2=".81" y2="23.58"/>
        <line class="cls-4" x1=".92" y1="23.58" x2=".94" y2="23.58"/>
        <line class="cls-4" x1="1.04" y1="23.58" x2="1.06" y2="23.58"/>
        <line class="cls-4" x1="1.17" y1="23.58" x2="1.18" y2="23.58"/>
        <line class="cls-4" x1="1.29" y1="23.58" x2="1.3" y2="23.58"/>
        <line class="cls-4" x1="1.41" y1="23.58" x2="1.42" y2="23.58"/>
        <line class="cls-4" x1="1.53" y1="23.58" x2="1.55" y2="23.58"/>
        <line class="cls-4" x1="1.65" y1="23.58" x2="1.67" y2="23.58"/>
        <line class="cls-4" x1=".74" y1="24.34" x2=".75" y2="24.34"/>
        <line class="cls-4" x1=".86" y1="24.34" x2=".87" y2="24.34"/>
        <line class="cls-4" x1=".98" y1="24.34" x2="1" y2="24.34"/>
        <line class="cls-4" x1="1.1" y1="24.34" x2="1.12" y2="24.34"/>
        <line class="cls-4" x1="1.23" y1="24.34" x2="1.24" y2="24.34"/>
        <line class="cls-4" x1="1.35" y1="24.34" x2="1.36" y2="24.34"/>
        <line class="cls-4" x1="1.47" y1="24.34" x2="1.49" y2="24.34"/>
        <line class="cls-4" x1="1.59" y1="24.34" x2="1.61" y2="24.34"/>
        <line class="cls-4" x1="1.72" y1="24.34" x2="1.73" y2="24.34"/>
        <path class="cls-4" d="M1.67,23.58s.03.05.05.08"/>
        <path class="cls-4" d="M1.55,23.58s.03.05.05.08"/>
        <path class="cls-4" d="M1.43,23.58s.03.05.05.08"/>
        <path class="cls-4" d="M1.3,23.58s.03.05.05.08"/>
        <path class="cls-4" d="M1.18,23.58s.03.05.05.08"/>
        <path class="cls-4" d="M1.06,23.58s.03.05.05.08"/>
        <path class="cls-4" d="M.94,23.58s.03.05.05.08"/>
        <path class="cls-4" d="M.82,23.58s.03.05.05.08"/>
        <path class="cls-4" d="M.71,23.6s.02.04.03.06"/>
        <path class="cls-4" d="M1.78,24.26s-.03.05-.04.08"/>
        <line class="cls-4" x1="1.66" y1="24.26" x2="1.61" y2="24.34"/>
        <line class="cls-4" x1="1.53" y1="24.26" x2="1.49" y2="24.34"/>
        <line class="cls-4" x1="1.41" y1="24.26" x2="1.37" y2="24.34"/>
        <line class="cls-4" x1="1.29" y1="24.26" x2="1.24" y2="24.34"/>
        <line class="cls-4" x1="1.17" y1="24.26" x2="1.12" y2="24.34"/>
        <path class="cls-4" d="M1.04,24.26s-.03.05-.05.08"/>
        <path class="cls-4" d="M.92,24.26s-.03.05-.05.08"/>
        <line class="cls-4" x1=".8" y1="24.26" x2=".75" y2="24.34"/>
        <path class="cls-4" d="M1.73,23.66s.03-.05.04-.08"/>
        <path class="cls-4" d="M1.61,23.66s.03-.05.04-.08"/>
        <path class="cls-4" d="M1.49,23.66s.03-.05.04-.08"/>
        <path class="cls-4" d="M1.36,23.66s.03-.05.04-.08"/>
        <path class="cls-4" d="M1.24,23.66s.03-.05.04-.08"/>
        <path class="cls-4" d="M1.12,23.66s.03-.05.04-.08"/>
        <path class="cls-4" d="M1,23.66s.03-.05.04-.08"/>
        <path class="cls-4" d="M.87,23.66s.03-.05.04-.08"/>
        <path class="cls-4" d="M.75,23.66s.03-.05.04-.08"/>
        <path class="cls-4" d="M1.71,24.34s-.03-.05-.05-.08"/>
        <path class="cls-4" d="M1.59,24.34s-.03-.05-.05-.08"/>
        <path class="cls-4" d="M1.47,24.34s-.03-.05-.05-.08"/>
        <path class="cls-4" d="M1.35,24.34s-.03-.05-.05-.08"/>
        <path class="cls-4" d="M1.22,24.34s-.03-.05-.05-.08"/>
        <path class="cls-4" d="M1.1,24.34s-.03-.05-.05-.08"/>
        <path class="cls-4" d="M.98,24.34s-.03-.05-.05-.08"/>
        <path class="cls-4" d="M.86,24.34s-.03-.05-.05-.08"/>
        <path class="cls-4" d="M.74,24.34s-.02-.03-.03-.05"/>
        <line class="cls-4" x1=".48" y1="22.05" x2=".48" y2="25.87"/>
        <line class="cls-4" x1=".71" y1="22.05" x2=".71" y2="25.87"/>
        <line class="cls-4" x1=".71" y1="25.87" x2=".48" y2="25.87"/>
        <line class="cls-4" x1=".71" y1="22.05" x2=".48" y2="22.05"/>
        <line class="cls-4" x1="5.45" y1="22.22" x2="5.26" y2="22.22"/>
        <line class="cls-4" x1="5.26" y1="21.67" x2="5.45" y2="21.67"/>
        <line class="cls-4" x1="5.26" y1="22.11" x2="5.45" y2="22.11"/>
        <line class="cls-4" x1="5.45" y1="21.8" x2="5.26" y2="21.8"/>
        <line class="cls-4" x1="21.01" y1="25.43" x2="20.76" y2="25.43"/>
        <line class="cls-7" x1="20.27" y1="25.43" x2="9.62" y2="25.43"/>
        <line class="cls-4" x1="9.37" y1="25.43" x2="9.12" y2="25.43"/>
        <line class="cls-4" x1="21.01" y1="22.53" x2="20.76" y2="22.53"/>
        <line class="cls-7" x1="20.27" y1="22.53" x2="9.62" y2="22.53"/>
        <line class="cls-4" x1="9.37" y1="22.53" x2="9.12" y2="22.53"/>
        <line class="cls-4" x1="21.01" y1="25.43" x2="21.01" y2="25.18"/>
        <line class="cls-1" x1="21.01" y1="24.7" x2="21.01" y2="23.02"/>
        <line class="cls-4" x1="21.01" y1="22.78" x2="21.01" y2="22.53"/>
        <line class="cls-4" x1="20.14" y1="31.07" x2="20.14" y2="30.82"/>
        <line class="cls-5" x1="20.14" y1="30.32" x2="20.14" y2="17.59"/>
        <line class="cls-4" x1="20.14" y1="17.34" x2="20.14" y2="17.09"/>
        <line class="cls-4" x1="19.35" y1="31.07" x2="19.35" y2="30.82"/>
        <line class="cls-5" x1="19.35" y1="30.32" x2="19.35" y2="17.59"/>
        <line class="cls-4" x1="19.35" y1="17.34" x2="19.35" y2="17.09"/>
        <line class="cls-3" x1="19.35" y1="17.09" x2="20.14" y2="17.09"/>
        <line class="cls-4" x1="11.6" y1="31.07" x2="11.6" y2="30.82"/>
        <line class="cls-5" x1="11.6" y1="30.32" x2="11.6" y2="17.59"/>
        <line class="cls-4" x1="11.6" y1="17.34" x2="11.6" y2="17.09"/>
        <line class="cls-4" x1="10.82" y1="31.07" x2="10.82" y2="30.82"/>
        <line class="cls-5" x1="10.82" y1="30.32" x2="10.82" y2="17.59"/>
        <line class="cls-4" x1="10.82" y1="17.34" x2="10.82" y2="17.09"/>
        <line class="cls-3" x1="10.82" y1="17.09" x2="11.6" y2="17.09"/>
      </g>
      <rect class="cls-2" x="9.04" y="16.41" width="174.25" height="15.28"/>
      <g>
        <line class="cls-4" x1="184.79" y1="19.96" x2="184.79" y2="19.82"/>
        <line class="cls-4" x1="184.79" y1="19.16" x2="184.79" y2="19.82"/>
        <line class="cls-4" x1="184.79" y1="19.16" x2="184.79" y2="18.24"/>
        <line class="cls-4" x1="184.79" y1="29.48" x2="184.79" y2="28.56"/>
        <line class="cls-4" x1="184.79" y1="27.9" x2="184.79" y2="28.56"/>
        <line class="cls-4" x1="184.79" y1="27.9" x2="184.79" y2="27.76"/>
        <line class="cls-4" x1="184.79" y1="27" x2="184.79" y2="27.76"/>
        <line class="cls-4" x1="184.79" y1="27" x2="184.79" y2="24.93"/>
        <line class="cls-4" x1="184.79" y1="24.93" x2="184.79" y2="22.79"/>
        <line class="cls-4" x1="184.79" y1="22.79" x2="184.79" y2="20.73"/>
        <line class="cls-4" x1="184.79" y1="19.96" x2="184.79" y2="20.73"/>
        <line class="cls-4" x1="187.24" y1="17.63" x2="185.1" y2="17.63"/>
        <line class="cls-4" x1="184.79" y1="18.24" x2="188.92" y2="18.24"/>
        <line class="cls-4" x1="187.16" y1="22.79" x2="187.16" y2="24.93"/>
        <line class="cls-4" x1="184.79" y1="22.79" x2="187.16" y2="22.79"/>
        <line class="cls-4" x1="188.16" y1="19.96" x2="188.16" y2="22.79"/>
        <line class="cls-4" x1="188.92" y1="27.9" x2="188.92" y2="19.83"/>
        <line class="cls-4" x1="187.16" y1="22.79" x2="188.16" y2="22.79"/>
        <line class="cls-4" x1="187.16" y1="24.93" x2="188.16" y2="24.93"/>
        <line class="cls-4" x1="188.16" y1="24.93" x2="188.16" y2="27.76"/>
        <line class="cls-4" x1="188.92" y1="18.24" x2="188.92" y2="19.16"/>
        <line class="cls-4" x1="188.92" y1="19.16" x2="188.92" y2="19.82"/>
        <line class="cls-4" x1="188.92" y1="27.9" x2="188.92" y2="28.56"/>
        <line class="cls-4" x1="188.92" y1="28.56" x2="188.92" y2="29.48"/>
        <line class="cls-4" x1="188.92" y1="29.48" x2="184.79" y2="29.48"/>
        <line class="cls-4" x1="188.16" y1="27" x2="184.79" y2="27"/>
        <line class="cls-4" x1="188.16" y1="20.73" x2="184.79" y2="20.73"/>
        <line class="cls-4" x1="187.16" y1="24.93" x2="184.79" y2="24.93"/>
        <line class="cls-4" x1="184.79" y1="27.3" x2="184.18" y2="27.3"/>
        <line class="cls-4" x1="184.79" y1="20.42" x2="184.18" y2="20.42"/>
        <line class="cls-4" x1="187.24" y1="17.63" x2="187.24" y2="18.24"/>
        <line class="cls-4" x1="185.1" y1="17.63" x2="185.1" y2="18.24"/>
        <line class="cls-4" x1="183.57" y1="16.22" x2="183.57" y2="31.51"/>
        <line class="cls-4" x1="184.18" y1="16.22" x2="184.18" y2="31.51"/>
        <line class="cls-4" x1="184.18" y1="31.51" x2="183.57" y2="31.51"/>
        <line class="cls-4" x1="184.18" y1="16.22" x2="183.57" y2="16.22"/>
        <line class="cls-4" x1="187.12" y1="30.09" x2="185.22" y2="30.09"/>
        <path class="cls-4" d="M185.22,30.09c-.07,0-.12-.05-.12-.12"/>
        <path class="cls-4" d="M187.24,29.97c0,.07-.06.12-.12.12"/>
        <line class="cls-4" x1="187.24" y1="29.48" x2="187.24" y2="29.97"/>
        <line class="cls-4" x1="185.1" y1="29.48" x2="185.1" y2="29.97"/>
        <line class="cls-4" x1="183.44" y1="31.58" x2="183.44" y2="16.14"/>
        <line class="cls-4" x1="188.92" y1="19.82" x2="184.79" y2="19.82"/>
        <line class="cls-4" x1="184.79" y1="19.96" x2="188.16" y2="19.96"/>
        <line class="cls-4" x1="188.16" y1="27.76" x2="184.79" y2="27.76"/>
        <line class="cls-4" x1="188.92" y1="27.9" x2="184.79" y2="27.9"/>
        <line class="cls-4" x1="188.92" y1="19.16" x2="184.79" y2="19.16"/>
        <line class="cls-4" x1="188.92" y1="28.56" x2="184.79" y2="28.56"/>
        <line class="cls-4" x1="185.1" y1="29.97" x2="187.24" y2="29.97"/>
        <line class="cls-4" x1="188.92" y1="38.77" x2="188.92" y2="32.65"/>
        <line class="cls-4" x1="188.92" y1="15.07" x2="188.92" y2="32.65"/>
        <line class="cls-4" x1="188.92" y1="15.07" x2="188.92" y2="8.95"/>
        <line class="cls-4" x1="188.92" y1="38.77" x2="189.53" y2="38.77"/>
        <line class="cls-4" x1="189.53" y1="8.95" x2="188.92" y2="8.95"/>
        <line class="cls-4" x1="189.53" y1="32.65" x2="189.53" y2="38.77"/>
        <line class="cls-4" x1="189.53" y1="8.95" x2="189.53" y2="15.07"/>
        <line class="cls-4" x1="189.53" y1="15.07" x2="189.53" y2="32.65"/>
        <line class="cls-4" x1="189.53" y1="32.65" x2="188.92" y2="32.65"/>
        <line class="cls-4" x1="188.92" y1="15.07" x2="189.53" y2="15.07"/>
        <rect class="cls-8" x="130.48" y="18.69" width="52.96" height="10.32"/>
        <rect class="cls-6" x="127.73" y="17.24" width="2.74" height="13.24"/>
      </g>
    </g>
  </g>
</svg>