<?xml version="1.0" encoding="UTF-8"?>
<svg id="Layer_2" data-name="Layer 2" xmlns="http://www.w3.org/2000/svg" viewBox="0 0 184.23 33.05">
  <defs>
    <style>
      .cls-1 {
        stroke-dasharray: .48 .48;
      }

      .cls-1, .cls-2, .cls-3, .cls-4, .cls-5, .cls-6 {
        stroke: #000;
        stroke-linecap: round;
        stroke-linejoin: round;
        stroke-width: .25px;
      }

      .cls-1, .cls-3, .cls-4, .cls-5, .cls-6 {
        fill: none;
      }

      .cls-2 {
        fill: silver;
        opacity: .54;
      }

      .cls-3 {
        stroke-dasharray: .5 .5;
      }

      .cls-5 {
        stroke-dasharray: .5 .5;
      }

      .cls-6 {
        stroke-dasharray: .5 .5;
      }
    </style>
  </defs>
  <g id="Layer_1-2" data-name="Layer 1">
    <g>
      <g>
        <line class="cls-4" x1="5.52" y1="6.12" x2="5.52" y2="6.73"/>
        <line class="cls-4" x1="5.52" y1="8.42" x2="5.52" y2="9.03"/>
        <line class="cls-4" x1="5.06" y1="9.03" x2="5.06" y2="8.42"/>
        <line class="cls-4" x1="5.06" y1="6.73" x2="5.06" y2="6.12"/>
        <line class="cls-4" x1="5.06" y1="6.12" x2="5.19" y2="6.12"/>
        <line class="cls-4" x1="5.37" y1="6.12" x2="5.52" y2="6.12"/>
        <line class="cls-4" x1="5.52" y1="6.73" x2="5.37" y2="6.73"/>
        <line class="cls-4" x1="5.19" y1="6.73" x2="5.06" y2="6.73"/>
        <line class="cls-4" x1="5.52" y1="9.03" x2="5.37" y2="9.03"/>
        <line class="cls-4" x1="5.19" y1="9.03" x2="5.06" y2="9.03"/>
        <line class="cls-4" x1="5.06" y1="8.42" x2="5.19" y2="8.42"/>
        <line class="cls-4" x1="5.37" y1="8.42" x2="5.52" y2="8.42"/>
        <line class="cls-4" x1="9.04" y1="9.03" x2="5.52" y2="9.03"/>
        <line class="cls-4" x1="5.06" y1="9.03" x2="1.7" y2="9.03"/>
        <line class="cls-4" x1="5.06" y1="6.12" x2="1.7" y2="6.12"/>
        <line class="cls-4" x1="9.04" y1="6.12" x2="5.52" y2="6.12"/>
        <line class="cls-4" x1="1.7" y1="9.03" x2="1.7" y2="6.12"/>
        <line class="cls-4" x1="5.37" y1="9.81" x2="5.37" y2="5.84"/>
        <line class="cls-4" x1="5.19" y1="9.81" x2="5.19" y2="5.84"/>
        <line class="cls-4" x1="5.37" y1="5.29" x2="5.37" y2="5.13"/>
        <line class="cls-4" x1="5.37" y1="5.42" x2="5.37" y2="5.29"/>
        <line class="cls-4" x1="5.37" y1="5.42" x2="5.37" y2="5.72"/>
        <line class="cls-4" x1="5.37" y1="5.72" x2="5.37" y2="5.83"/>
        <line class="cls-4" x1="5.19" y1="5.42" x2="5.19" y2="5.72"/>
        <line class="cls-4" x1="5.19" y1="5.29" x2="5.19" y2="5.42"/>
        <line class="cls-4" x1="5.19" y1="5.29" x2="5.19" y2="5.13"/>
        <line class="cls-4" x1="5.19" y1="5.83" x2="5.19" y2="5.72"/>
        <line class="cls-4" x1="5.37" y1="5.13" x2="5.19" y2="5.13"/>
        <line class="cls-4" x1="5.37" y1="9.81" x2="5.19" y2="9.81"/>
        <line class="cls-4" x1=".17" y1="6.81" x2=".17" y2="8.34"/>
        <line class="cls-4" x1=".13" y1="6.81" x2=".13" y2="8.34"/>
        <path class="cls-4" d="M1.7,7.79s0,0,0,0c0-.03,0-.07,0-.1,0-.04,0-.07,0-.11,0-.04,0-.08,0-.12,0-.04,0-.07,0-.09,0-.03,0-.05,0-.06,0-.01,0-.02,0-.02"/>
        <path class="cls-4" d="M1.59,7.88s0-.01,0-.02c0-.02,0-.04,0-.07,0-.03,0-.06,0-.1,0-.04,0-.07,0-.11,0-.04,0-.08,0-.12,0-.04,0-.07,0-.1,0-.03,0-.05,0-.07,0-.01,0-.02,0-.02"/>
        <path class="cls-4" d="M1.47,7.88s0-.01,0-.02c0-.01,0-.04,0-.07,0-.03,0-.06,0-.1,0-.04,0-.07,0-.11,0-.04,0-.08,0-.12,0-.04,0-.07,0-.1,0-.03,0-.05,0-.07,0-.01,0-.02,0-.02"/>
        <path class="cls-4" d="M1.35,7.88s0-.01,0-.02c0-.01,0-.04,0-.07,0-.03,0-.06,0-.1,0-.04,0-.07,0-.11,0-.04,0-.08,0-.12,0-.04,0-.07,0-.1,0-.03,0-.05,0-.07,0-.01,0-.02,0-.02"/>
        <path class="cls-4" d="M1.22,7.88s0-.01,0-.02c0-.01,0-.04,0-.07,0-.03,0-.06,0-.1s0-.07,0-.11c0-.04,0-.08,0-.12,0-.04,0-.07,0-.1,0-.03,0-.05,0-.07,0-.01,0-.02,0-.02"/>
        <path class="cls-4" d="M1.1,7.88s0-.01,0-.02c0-.02,0-.04,0-.07,0-.03,0-.06,0-.1,0-.04,0-.07,0-.11,0-.04,0-.08,0-.12,0-.04,0-.07,0-.1,0-.03,0-.05,0-.07,0-.01,0-.02,0-.02"/>
        <path class="cls-4" d="M.98,7.88s0-.01,0-.02c0-.02,0-.04,0-.07,0-.03,0-.06,0-.1,0-.04,0-.07,0-.11,0-.04,0-.08,0-.12,0-.03,0-.07,0-.1,0-.03,0-.05,0-.07,0-.01,0-.02,0-.02"/>
        <path class="cls-4" d="M.86,7.88s0-.01,0-.02c0-.02,0-.04,0-.07,0-.03,0-.06,0-.1,0-.04,0-.07,0-.11,0-.04,0-.08,0-.12,0-.04,0-.07,0-.1,0-.03,0-.05,0-.07,0-.01,0-.02,0-.02"/>
        <path class="cls-4" d="M.73,7.88s0-.01,0-.02c0-.02,0-.04,0-.07,0-.03,0-.06,0-.1,0-.04,0-.07,0-.11,0-.04,0-.08,0-.12,0-.04,0-.07,0-.1,0-.03,0-.05,0-.07,0-.01,0-.02,0-.02"/>
        <path class="cls-4" d="M1.64,7.27s0,0,0,0c0,0,0,.02,0,.05,0,.02,0,.05,0,.08,0,.03,0,.07,0,.11,0,.04,0,.08,0,.12,0,.04,0,.08,0,.11,0,.03,0,.06,0,.08,0,.02,0,.04,0,.04,0,0,0,0,0,0"/>
        <path class="cls-4" d="M1.52,7.27s0,0,0,0c0,.01,0,.03,0,.06,0,.02,0,.05,0,.09,0,.04,0,.07,0,.11,0,.04,0,.08,0,.12,0,.04,0,.07,0,.11,0,.03,0,.06,0,.08,0,.02,0,.03,0,.04,0,0,0,0,0,0"/>
        <path class="cls-4" d="M1.4,7.27s0,0,0,.01c0,.01,0,.03,0,.06,0,.02,0,.06,0,.09,0,.04,0,.07,0,.12,0,.04,0,.08,0,.11,0,.04,0,.07,0,.1,0,.03,0,.05,0,.07,0,.02,0,.03,0,.03,0,0,0,0,0,0"/>
        <path class="cls-4" d="M1.27,7.27s0,0,0,.02c0,.01,0,.04,0,.06,0,.03,0,.06,0,.09,0,.04,0,.08,0,.12,0,.04,0,.08,0,.11,0,.04,0,.07,0,.1,0,.03,0,.05,0,.07,0,.02,0,.03,0,.03,0,0,0,0,0,0"/>
        <path class="cls-4" d="M1.15,7.27s0,0,0,.02c0,.01,0,.04,0,.06,0,.03,0,.06,0,.09,0,.04,0,.08,0,.12,0,.04,0,.08,0,.11,0,.04,0,.07,0,.1,0,.03,0,.05,0,.07,0,.02,0,.03,0,.03"/>
        <path class="cls-4" d="M1.03,7.27s0,0,0,.02c0,.01,0,.04,0,.07,0,.03,0,.06,0,.09,0,.04,0,.08,0,.12,0,.04,0,.08,0,.11,0,.04,0,.07,0,.1,0,.03,0,.05,0,.07,0,.02,0,.03,0,.03"/>
        <path class="cls-4" d="M.91,7.27s0,0,0,.02c0,.01,0,.04,0,.07,0,.03,0,.06,0,.1,0,.04,0,.08,0,.12,0,.04,0,.08,0,.11,0,.04,0,.07,0,.1,0,.03,0,.05,0,.07,0,.02,0,.02,0,.02"/>
        <path class="cls-4" d="M.78,7.27s0,.01,0,.02c0,.01,0,.04,0,.07,0,.03,0,.06,0,.1,0,.04,0,.08,0,.12,0,.04,0,.08,0,.11,0,.04,0,.07,0,.1,0,.03,0,.05,0,.07,0,.02,0,.02,0,.02"/>
        <path class="cls-4" d="M.66,7.27s0,.01,0,.02c0,.01,0,.04,0,.07,0,.03,0,.06,0,.1,0,.04,0,.08,0,.12,0,.04,0,.08,0,.11,0,.04,0,.07,0,.1,0,.03,0,.05,0,.07,0,.01,0,.02,0,.02"/>
        <path class="cls-4" d="M1.7,7.19s0,0,0,0"/>
        <path class="cls-4" d="M1.58,7.19s0,0,0,0c0,.01,0,.03,0,.06,0,.03,0,.06,0,.1,0,.04,0,.09,0,.14,0,.05,0,.1,0,.15,0,.05,0,.1,0,.14,0,.04,0,.08,0,.1,0,.03,0,.05,0,.06,0,0,0,0,0,0"/>
        <path class="cls-4" d="M1.45,7.19s0,0,0,.01c0,.01,0,.04,0,.07,0,.03,0,.07,0,.11,0,.04,0,.09,0,.14,0,.05,0,.1,0,.15,0,.05,0,.1,0,.13,0,.04,0,.07,0,.1,0,.02,0,.04,0,.05,0,0,0,0,0,0"/>
        <path class="cls-4" d="M1.33,7.19h0s0,0,0,.02c0,.01,0,.04,0,.07,0,.03,0,.07,0,.11,0,.05,0,.09,0,.15,0,.05,0,.1,0,.14,0,.05,0,.09,0,.13,0,.04,0,.07,0,.09,0,.02,0,.04,0,.04t0,0"/>
        <path class="cls-4" d="M1.21,7.19s0,0,0,0c0,0,0,0,0,.02,0,.02,0,.04,0,.08,0,.03,0,.07,0,.12,0,.05,0,.1,0,.15,0,.05,0,.1,0,.14,0,.05,0,.09,0,.13,0,.04,0,.07,0,.09,0,.02,0,.03,0,.04h0"/>
        <path class="cls-4" d="M1.09,7.19s0,0,0,0c0,0,0,0,0,.02,0,.02,0,.05,0,.08,0,.03,0,.07,0,.12,0,.05,0,.1,0,.15,0,.05,0,.1,0,.14,0,.05,0,.09,0,.13,0,.04,0,.06,0,.08,0,.02,0,.03,0,.03h0"/>
        <path class="cls-4" d="M.96,7.19h0s0,0,0,.03c0,.02,0,.05,0,.08,0,.03,0,.07,0,.12,0,.05,0,.1,0,.15,0,.05,0,.1,0,.14,0,.05,0,.09,0,.13,0,.04,0,.06,0,.08,0,.02,0,.03,0,.03"/>
        <path class="cls-4" d="M.84,7.19s0,0,0,0c0,0,0,0,0,.03,0,.02,0,.05,0,.08,0,.04,0,.08,0,.12,0,.05,0,.1,0,.15,0,.05,0,.1,0,.14,0,.05,0,.09,0,.13,0,.03,0,.06,0,.08,0,.02,0,.03,0,.03"/>
        <path class="cls-4" d="M.72,7.19s0,0,0,0c0,0,0,0,0,.03,0,.02,0,.05,0,.08,0,.04,0,.08,0,.12,0,.05,0,.1,0,.15,0,.05,0,.1,0,.14,0,.05,0,.09,0,.13,0,.03,0,.06,0,.08,0,.02,0,.03,0,.03"/>
        <path class="cls-4" d="M.63,7.58h0c0,.05,0,.1,0,.15,0,.05,0,.09,0,.13,0,.03,0,.06,0,.08,0,.02,0,.03,0,.03"/>
        <path class="cls-4" d="M1.66,7.96s0,0,0-.01c0-.01,0-.04,0-.07,0-.03,0-.07,0-.11,0-.04,0-.09,0-.14,0-.05,0-.1,0-.15,0-.05,0-.09,0-.13,0-.04,0-.07,0-.1,0-.03,0-.04,0-.05,0,0,0,0,0,0"/>
        <path class="cls-4" d="M1.53,7.96s0,0,0,0c0-.01,0-.03,0-.06,0-.03,0-.07,0-.11,0-.04,0-.09,0-.14,0-.05,0-.1,0-.15,0-.05,0-.1,0-.14,0-.04,0-.08,0-.1,0-.03,0-.05,0-.06,0,0,0,0,0,0"/>
        <path class="cls-4" d="M1.41,7.96s0,0,0,0c0,0,0-.03,0-.05,0-.03,0-.06,0-.1,0-.04,0-.09,0-.14,0-.05,0-.1,0-.15,0-.05,0-.1,0-.14,0-.04,0-.08,0-.11,0-.03,0-.05,0-.07,0,0,0-.01,0-.01"/>
        <path class="cls-4" d="M1.29,7.96s0,0,0,0c0,0,0-.02,0-.04,0-.02,0-.05,0-.09,0-.04,0-.08,0-.13,0-.05,0-.1,0-.15,0-.05,0-.1,0-.14,0-.04,0-.08,0-.11,0-.03,0-.06,0-.07,0-.01,0-.02,0-.02"/>
        <path class="cls-4" d="M1.17,7.96s0,0,0,0c0,0,0-.02,0-.04,0-.02,0-.05,0-.09,0-.04,0-.08,0-.13,0-.05,0-.1,0-.14,0-.05,0-.1,0-.15,0-.04,0-.08,0-.12,0-.04,0-.06,0-.08,0-.01,0-.02,0-.02"/>
        <path class="cls-4" d="M1.04,7.96s0,0,0,0c0,0,0-.01,0-.03s0-.05,0-.09c0-.04,0-.08,0-.13,0-.05,0-.09,0-.14,0-.05,0-.1,0-.15,0-.04,0-.08,0-.12,0-.04,0-.06,0-.08,0-.02,0-.02,0-.02"/>
        <path class="cls-4" d="M.92,7.96s0,0,0,0c0,0,0-.01,0-.03,0-.02,0-.05,0-.08,0-.04,0-.08,0-.13,0-.05,0-.1,0-.14,0-.05,0-.1,0-.15,0-.05,0-.09,0-.12,0-.04,0-.06,0-.08,0-.02,0-.03,0-.03"/>
        <path class="cls-4" d="M.8,7.96s0,0,0,0c0,0,0,0,0-.03,0-.02,0-.05,0-.08,0-.04,0-.08,0-.13,0-.05,0-.1,0-.14,0-.05,0-.1,0-.15,0-.04,0-.09,0-.12,0-.04,0-.06,0-.08,0-.02,0-.03,0-.03"/>
        <path class="cls-4" d="M.68,7.96s0,0,0,0c0,0,0,0,0-.03,0-.02,0-.05,0-.08,0-.04,0-.08,0-.13,0-.04,0-.09,0-.14,0-.05,0-.1,0-.15,0-.05,0-.09,0-.12"/>
        <line class="cls-4" x1=".4" y1="8.11" x2=".17" y2="8.34"/>
        <line class="cls-4" x1=".4" y1="7.04" x2=".17" y2="6.81"/>
        <line class="cls-4" x1=".17" y1="8.34" x2=".12" y2="8.34"/>
        <line class="cls-4" x1=".17" y1="6.81" x2=".12" y2="6.81"/>
        <line class="cls-4" x1="1.59" y1="7.88" x2="1.58" y2="7.88"/>
        <line class="cls-4" x1="1.47" y1="7.88" x2="1.46" y2="7.88"/>
        <line class="cls-4" x1="1.35" y1="7.88" x2="1.33" y2="7.88"/>
        <line class="cls-4" x1="1.23" y1="7.88" x2="1.21" y2="7.88"/>
        <line class="cls-4" x1="1.1" y1="7.88" x2="1.09" y2="7.88"/>
        <line class="cls-4" x1=".98" y1="7.88" x2=".97" y2="7.88"/>
        <line class="cls-4" x1=".86" y1="7.88" x2=".84" y2="7.88"/>
        <line class="cls-4" x1=".74" y1="7.88" x2=".72" y2="7.88"/>
        <line class="cls-4" x1="1.65" y1="7.27" x2="1.64" y2="7.27"/>
        <line class="cls-4" x1="1.53" y1="7.27" x2="1.52" y2="7.27"/>
        <line class="cls-4" x1="1.41" y1="7.27" x2="1.4" y2="7.27"/>
        <line class="cls-4" x1="1.29" y1="7.27" x2="1.27" y2="7.27"/>
        <line class="cls-4" x1="1.16" y1="7.27" x2="1.15" y2="7.27"/>
        <line class="cls-4" x1="1.04" y1="7.27" x2="1.03" y2="7.27"/>
        <line class="cls-4" x1=".92" y1="7.27" x2=".91" y2="7.27"/>
        <line class="cls-4" x1=".8" y1="7.27" x2=".78" y2="7.27"/>
        <line class="cls-4" x1=".68" y1="7.27" x2=".66" y2="7.27"/>
        <line class="cls-4" x1=".72" y1="7.19" x2=".74" y2="7.19"/>
        <line class="cls-4" x1=".84" y1="7.19" x2=".86" y2="7.19"/>
        <line class="cls-4" x1=".97" y1="7.19" x2=".98" y2="7.19"/>
        <line class="cls-4" x1="1.09" y1="7.19" x2="1.1" y2="7.19"/>
        <line class="cls-4" x1="1.21" y1="7.19" x2="1.23" y2="7.19"/>
        <line class="cls-4" x1="1.33" y1="7.19" x2="1.35" y2="7.19"/>
        <line class="cls-4" x1="1.46" y1="7.19" x2="1.47" y2="7.19"/>
        <line class="cls-4" x1="1.58" y1="7.19" x2="1.59" y2="7.19"/>
        <line class="cls-4" x1=".66" y1="7.96" x2=".68" y2="7.96"/>
        <line class="cls-4" x1=".78" y1="7.96" x2=".8" y2="7.96"/>
        <line class="cls-4" x1=".91" y1="7.96" x2=".92" y2="7.96"/>
        <line class="cls-4" x1="1.03" y1="7.96" x2="1.04" y2="7.96"/>
        <line class="cls-4" x1="1.15" y1="7.96" x2="1.16" y2="7.96"/>
        <line class="cls-4" x1="1.27" y1="7.96" x2="1.29" y2="7.96"/>
        <line class="cls-4" x1="1.39" y1="7.96" x2="1.41" y2="7.96"/>
        <line class="cls-4" x1="1.52" y1="7.96" x2="1.53" y2="7.96"/>
        <line class="cls-4" x1="1.64" y1="7.96" x2="1.65" y2="7.96"/>
        <path class="cls-4" d="M1.59,7.19s.03.05.05.08"/>
        <path class="cls-4" d="M1.47,7.19s.03.05.05.08"/>
        <path class="cls-4" d="M1.35,7.19s.03.05.05.08"/>
        <path class="cls-4" d="M1.23,7.19s.03.05.05.08"/>
        <path class="cls-4" d="M1.11,7.19s.03.05.05.08"/>
        <path class="cls-4" d="M.98,7.19s.03.05.05.08"/>
        <path class="cls-4" d="M.86,7.19s.03.05.05.08"/>
        <path class="cls-4" d="M.74,7.19s.03.05.05.08"/>
        <path class="cls-4" d="M.63,7.22s.02.04.03.06"/>
        <path class="cls-4" d="M1.7,7.88s-.03.05-.04.08"/>
        <line class="cls-4" x1="1.58" y1="7.88" x2="1.53" y2="7.96"/>
        <line class="cls-4" x1="1.46" y1="7.88" x2="1.41" y2="7.96"/>
        <line class="cls-4" x1="1.33" y1="7.88" x2="1.29" y2="7.96"/>
        <line class="cls-4" x1="1.21" y1="7.88" x2="1.17" y2="7.96"/>
        <line class="cls-4" x1="1.09" y1="7.88" x2="1.04" y2="7.96"/>
        <path class="cls-4" d="M.97,7.88s-.03.05-.05.08"/>
        <path class="cls-4" d="M.84,7.88s-.03.05-.05.08"/>
        <line class="cls-4" x1=".72" y1="7.88" x2=".68" y2="7.96"/>
        <path class="cls-4" d="M1.65,7.27s.03-.05.04-.08"/>
        <path class="cls-4" d="M1.53,7.27s.03-.05.04-.08"/>
        <path class="cls-4" d="M1.41,7.27s.03-.05.04-.08"/>
        <path class="cls-4" d="M1.29,7.27s.03-.05.04-.08"/>
        <path class="cls-4" d="M1.16,7.27s.03-.05.04-.08"/>
        <path class="cls-4" d="M1.04,7.27s.03-.05.04-.08"/>
        <path class="cls-4" d="M.92,7.27s.03-.05.04-.08"/>
        <path class="cls-4" d="M.8,7.27s.03-.05.04-.08"/>
        <path class="cls-4" d="M.67,7.27s.03-.05.04-.08"/>
        <path class="cls-4" d="M1.64,7.96s-.03-.05-.05-.08"/>
        <path class="cls-4" d="M1.52,7.96s-.03-.05-.05-.08"/>
        <path class="cls-4" d="M1.39,7.96s-.03-.05-.05-.08"/>
        <path class="cls-4" d="M1.27,7.96s-.03-.05-.05-.08"/>
        <path class="cls-4" d="M1.15,7.96s-.03-.05-.05-.08"/>
        <path class="cls-4" d="M1.03,7.96s-.03-.05-.05-.08"/>
        <path class="cls-4" d="M.9,7.96s-.03-.05-.05-.08"/>
        <path class="cls-4" d="M.78,7.96s-.03-.05-.05-.08"/>
        <path class="cls-4" d="M.66,7.96s-.02-.03-.03-.05"/>
        <line class="cls-4" x1=".4" y1="5.66" x2=".4" y2="9.49"/>
        <line class="cls-4" x1=".63" y1="5.66" x2=".63" y2="9.49"/>
        <line class="cls-4" x1=".63" y1="9.49" x2=".4" y2="9.49"/>
        <line class="cls-4" x1=".63" y1="5.66" x2=".4" y2="5.66"/>
        <line class="cls-4" x1="5.37" y1="5.83" x2="5.19" y2="5.83"/>
        <line class="cls-4" x1="5.19" y1="5.29" x2="5.37" y2="5.29"/>
        <line class="cls-4" x1="5.19" y1="5.72" x2="5.37" y2="5.72"/>
        <line class="cls-4" x1="5.37" y1="5.42" x2="5.19" y2="5.42"/>
        <line class="cls-4" x1="20.93" y1="9.05" x2="20.68" y2="9.05"/>
        <line class="cls-6" x1="20.19" y1="9.05" x2="9.54" y2="9.05"/>
        <line class="cls-4" x1="9.29" y1="9.05" x2="9.04" y2="9.05"/>
        <line class="cls-4" x1="20.93" y1="6.15" x2="20.68" y2="6.15"/>
        <line class="cls-6" x1="20.19" y1="6.15" x2="9.54" y2="6.15"/>
        <line class="cls-4" x1="9.29" y1="6.15" x2="9.04" y2="6.15"/>
        <line class="cls-4" x1="20.93" y1="9.05" x2="20.93" y2="8.8"/>
        <line class="cls-1" x1="20.93" y1="8.32" x2="20.93" y2="6.64"/>
        <line class="cls-4" x1="20.93" y1="6.4" x2="20.93" y2="6.15"/>
        <line class="cls-4" x1="20.06" y1="14.69" x2="20.06" y2="14.44"/>
        <line class="cls-5" x1="20.06" y1="13.94" x2="20.06" y2="1.21"/>
        <line class="cls-4" x1="20.06" y1=".96" x2="20.06" y2=".71"/>
        <line class="cls-4" x1="19.27" y1="14.69" x2="19.27" y2="14.44"/>
        <line class="cls-5" x1="19.27" y1="13.94" x2="19.27" y2="1.21"/>
        <line class="cls-4" x1="19.27" y1=".96" x2="19.27" y2=".71"/>
        <line class="cls-3" x1="19.27" y1=".71" x2="20.06" y2=".71"/>
        <line class="cls-4" x1="11.53" y1="14.69" x2="11.53" y2="14.44"/>
        <line class="cls-5" x1="11.53" y1="13.94" x2="11.53" y2="1.21"/>
        <line class="cls-4" x1="11.53" y1=".96" x2="11.53" y2=".71"/>
        <line class="cls-4" x1="10.74" y1="14.69" x2="10.74" y2="14.44"/>
        <line class="cls-5" x1="10.74" y1="13.94" x2="10.74" y2="1.21"/>
        <line class="cls-4" x1="10.74" y1=".96" x2="10.74" y2=".71"/>
        <line class="cls-3" x1="10.74" y1=".71" x2="11.53" y2=".71"/>
      </g>
      <g>
        <line class="cls-4" x1=".66" y1="20.18" x2=".66" y2="32.92"/>
        <line class="cls-4" x1="7.64" y1="26.86" x2="175.9" y2="26.86"/>
        <line class="cls-4" x1="183.26" y1="21.74" x2="183.26" y2="32.92"/>
        <polygon points=".66 26.86 9.4 28.34 9.4 25.38 .66 26.86"/>
        <polygon points="183.06 26.86 174.32 25.38 174.32 28.34 183.06 26.86"/>
      </g>
      <rect class="cls-2" x="9.86" y=".12" width="174.25" height="15.28"/>
    </g>
  </g>
</svg>