<?xml version="1.0" encoding="UTF-8"?>
<svg id="Layer_2" data-name="Layer 2" xmlns="http://www.w3.org/2000/svg" xmlns:xlink="http://www.w3.org/1999/xlink" viewBox="0 0 189.58 44.39">
  <defs>
    <style>
      .cls-1 {
        stroke-dasharray: .48 .48;
      }

      .cls-1, .cls-2, .cls-3, .cls-4, .cls-5, .cls-6, .cls-7, .cls-8 {
        stroke: #000;
        stroke-linecap: round;
        stroke-linejoin: round;
        stroke-width: .25px;
      }

      .cls-1, .cls-3, .cls-4, .cls-5, .cls-7 {
        fill: none;
      }

      .cls-2 {
        fill: silver;
        opacity: .54;
      }

      .cls-3, .cls-6, .cls-8 {
        stroke-dasharray: .5 .5;
      }

      .cls-5 {
        stroke-dasharray: .5 .5;
      }

      .cls-6 {
        fill: url(#linear-gradient-2);
      }

      .cls-6, .cls-8 {
        opacity: .55;
      }

      .cls-7 {
        stroke-dasharray: .5 .5;
      }

      .cls-8 {
        fill: url(#linear-gradient);
      }
    </style>
    <linearGradient id="linear-gradient" x1="156.88" y1="9.88" x2="156.88" y2="20.2" gradientUnits="userSpaceOnUse">
      <stop offset=".01" stop-color="#0048ff"/>
      <stop offset=".07" stop-color="#4579ff"/>
      <stop offset=".13" stop-color="#86a8ff"/>
      <stop offset=".18" stop-color="#bacdff"/>
      <stop offset=".23" stop-color="#dfe8ff"/>
      <stop offset=".27" stop-color="#f6f9ff"/>
      <stop offset=".29" stop-color="#fff"/>
      <stop offset=".3" stop-color="#fcfdfe"/>
      <stop offset=".35" stop-color="#c7d7f5"/>
      <stop offset=".41" stop-color="#99b6ed"/>
      <stop offset=".48" stop-color="#6f98e6"/>
      <stop offset=".54" stop-color="#4d80e1"/>
      <stop offset=".61" stop-color="#316cdc"/>
      <stop offset=".69" stop-color="#1b5cd8"/>
      <stop offset=".77" stop-color="#0b51d6"/>
      <stop offset=".86" stop-color="#024bd4"/>
      <stop offset="1" stop-color="#0049d4"/>
    </linearGradient>
    <linearGradient id="linear-gradient-2" x1="129.03" y1="8.43" x2="129.03" y2="21.67" gradientUnits="userSpaceOnUse">
      <stop offset=".01" stop-color="#000"/>
      <stop offset=".07" stop-color="#454545"/>
      <stop offset=".13" stop-color="#868686"/>
      <stop offset=".18" stop-color="#bababa"/>
      <stop offset=".23" stop-color="#dfdfdf"/>
      <stop offset=".27" stop-color="#f6f6f6"/>
      <stop offset=".29" stop-color="#fff"/>
      <stop offset=".3" stop-color="#fcfcfc"/>
      <stop offset=".35" stop-color="#c7c7c7"/>
      <stop offset=".41" stop-color="#999"/>
      <stop offset=".48" stop-color="#6f6f6f"/>
      <stop offset=".54" stop-color="#4d4d4d"/>
      <stop offset=".61" stop-color="#313131"/>
      <stop offset=".69" stop-color="#1b1b1b"/>
      <stop offset=".77" stop-color="#0b0b0b"/>
      <stop offset=".86" stop-color="#020202"/>
      <stop offset="1" stop-color="#000"/>
    </linearGradient>
  </defs>
  <g id="Layer_1-2" data-name="Layer 1">
    <g>
      <g>
        <line class="cls-4" x1="4.94" y1="22.47" x2="4.02" y2="22.47"/>
        <line class="cls-4" x1="4.02" y1="23.02" x2="4.02" y2="22.47"/>
        <line class="cls-4" x1="4.94" y1="22.47" x2="4.94" y2="23.02"/>
        <line class="cls-4" x1="4.02" y1="21.04" x2="4.87" y2="21.04"/>
        <line class="cls-4" x1="4.02" y1="22.01" x2="4.02" y2="21.04"/>
        <line class="cls-4" x1="4.94" y1="20.98" x2="4.94" y2="22.01"/>
        <path class="cls-4" d="M4.94,20.98s0,.01,0,.02c0,0,0,.01-.01.02,0,0-.01.01-.02.01,0,0-.01,0-.02,0,0,0-.01,0-.02,0"/>
        <line class="cls-4" x1="4.02" y1="22.47" x2="4.02" y2="22.01"/>
        <line class="cls-4" x1="4.94" y1="22.47" x2="4.94" y2="22.01"/>
        <line class="cls-4" x1="3.87" y1="7.54" x2="3.87" y2="7"/>
        <line class="cls-4" x1="4.94" y1="7.54" x2="3.87" y2="7.54"/>
        <line class="cls-4" x1="4.94" y1="7" x2="4.94" y2="7.54"/>
        <line class="cls-4" x1="3.87" y1="8.92" x2="3.87" y2="7.96"/>
        <line class="cls-4" x1="4.87" y1="8.92" x2="3.87" y2="8.92"/>
        <path class="cls-4" d="M4.87,8.92s.02,0,.03,0c0,0,.02,0,.02.01,0,0,.01.01.02.02,0,0,0,.01,0,.02h0"/>
        <line class="cls-4" x1="4.94" y1="7.96" x2="4.94" y2="8.98"/>
        <line class="cls-4" x1="3.87" y1="7.96" x2="3.87" y2="7.54"/>
        <line class="cls-4" x1="4.94" y1="7.96" x2="4.94" y2="7.54"/>
        <line class="cls-4" x1="4.94" y1="20.98" x2="4.94" y2="8.98"/>
        <line class="cls-4" x1="1.27" y1="18.46" x2="1.27" y2="11.61"/>
        <line class="cls-4" x1="2.34" y1="21.04" x2="4.02" y2="21.04"/>
        <line class="cls-4" x1="4.02" y1="21.04" x2="4.02" y2="21.04"/>
        <line class="cls-4" x1="3.87" y1="8.93" x2="3.87" y2="8.92"/>
        <line class="cls-4" x1="3.87" y1="8.93" x2="2.34" y2="8.93"/>
        <line class="cls-4" x1="2.34" y1="7.49" x2="3.87" y2="7.49"/>
        <line class="cls-4" x1="4.02" y1="22.55" x2="2.34" y2="22.55"/>
        <line class="cls-4" x1="1.27" y1="22.73" x2="1.27" y2="23.02"/>
        <line class="cls-4" x1="1.27" y1="22.44" x2="1.27" y2="22.73"/>
        <line class="cls-4" x1="1.27" y1="22.4" x2="1.27" y2="22.44"/>
        <line class="cls-4" x1="1.27" y1="21.87" x2="1.27" y2="22.4"/>
        <line class="cls-4" x1="1.27" y1="21.73" x2="1.27" y2="21.87"/>
        <line class="cls-4" x1="1.27" y1="21.68" x2="1.27" y2="21.73"/>
        <line class="cls-4" x1="1.27" y1="20.28" x2="1.27" y2="21.68"/>
        <line class="cls-4" x1="1.27" y1="18.48" x2="1.27" y2="20.28"/>
        <line class="cls-4" x1="1.27" y1="18.48" x2="1.27" y2="18.46"/>
        <line class="cls-4" x1="1.27" y1="11.61" x2="1.27" y2="11.59"/>
        <line class="cls-4" x1="1.27" y1="9.79" x2="1.27" y2="11.59"/>
        <line class="cls-4" x1="1.27" y1="8.38" x2="1.27" y2="9.79"/>
        <line class="cls-4" x1="1.27" y1="8.34" x2="1.27" y2="8.38"/>
        <line class="cls-4" x1="1.27" y1="8.2" x2="1.27" y2="8.34"/>
        <line class="cls-4" x1="1.27" y1="8.2" x2="1.27" y2="7.67"/>
        <line class="cls-4" x1="1.27" y1="7.63" x2="1.27" y2="7.67"/>
        <line class="cls-4" x1="1.27" y1="7.34" x2="1.27" y2="7.63"/>
        <line class="cls-4" x1="1.27" y1="7" x2="1.27" y2="7.34"/>
        <line class="cls-4" x1="2.27" y1="18.97" x2="2.27" y2="20.39"/>
        <line class="cls-4" x1="2.27" y1="20.39" x2="2.27" y2="21.58"/>
        <line class="cls-4" x1="2.27" y1="21.58" x2="2.27" y2="21.62"/>
        <line class="cls-4" x1="2.27" y1="21.62" x2="2.27" y2="21.87"/>
        <line class="cls-4" x1="2.27" y1="21.87" x2="2.27" y2="22.29"/>
        <line class="cls-4" x1="2.27" y1="22.29" x2="2.27" y2="22.33"/>
        <line class="cls-4" x1="2.27" y1="22.33" x2="2.27" y2="22.58"/>
        <line class="cls-4" x1="2.11" y1="20.28" x2="1.27" y2="20.28"/>
        <line class="cls-4" x1="2.11" y1="21.73" x2="1.27" y2="21.73"/>
        <path class="cls-4" d="M2.27,21.62c0,.06-.07.11-.15.11"/>
        <line class="cls-4" x1="2.11" y1="22.4" x2="1.27" y2="22.4"/>
        <path class="cls-4" d="M2.27,22.29c0,.06-.07.11-.15.11"/>
        <line class="cls-4" x1="2.27" y1="9.68" x2="2.27" y2="11.1"/>
        <line class="cls-4" x1="2.27" y1="7.49" x2="2.27" y2="7.74"/>
        <line class="cls-4" x1="2.27" y1="7.74" x2="2.27" y2="7.78"/>
        <line class="cls-4" x1="2.27" y1="8.2" x2="2.27" y2="7.78"/>
        <line class="cls-4" x1="2.27" y1="8.2" x2="2.27" y2="8.45"/>
        <line class="cls-4" x1="2.27" y1="8.45" x2="2.27" y2="8.49"/>
        <line class="cls-4" x1="2.27" y1="8.49" x2="2.27" y2="9.68"/>
        <line class="cls-4" x1="2.11" y1="9.79" x2="1.27" y2="9.79"/>
        <line class="cls-4" x1="2.11" y1="7.67" x2="1.27" y2="7.67"/>
        <path class="cls-4" d="M2.27,7.78c0-.06-.07-.11-.15-.11"/>
        <line class="cls-4" x1="2.11" y1="8.34" x2="1.27" y2="8.34"/>
        <path class="cls-4" d="M2.27,8.45c0-.06-.07-.11-.15-.11"/>
        <line class="cls-4" x1="2.34" y1="7" x2="2.34" y2="7.54"/>
        <line class="cls-4" x1="2.34" y1="7.54" x2="2.27" y2="7.54"/>
        <path class="cls-4" d="M2.27,8.85h0s0,.02,0,.03c0,0,.01.01.02.02,0,0,.02,0,.03.01,0,0,.02,0,.03,0"/>
        <line class="cls-4" x1="2.34" y1="7.96" x2="2.34" y2="8.92"/>
        <line class="cls-4" x1="2.34" y1="7.54" x2="2.34" y2="7.96"/>
        <line class="cls-4" x1="2.34" y1="22.47" x2="2.34" y2="23.02"/>
        <line class="cls-4" x1="2.34" y1="22.47" x2="2.27" y2="22.47"/>
        <line class="cls-4" x1="2.34" y1="21.04" x2="2.34" y2="22.01"/>
        <path class="cls-4" d="M2.34,21.04h0s-.02,0-.03,0c0,0-.02,0-.02.01,0,0-.01.01-.01.02,0,0,0,.02,0,.02"/>
        <line class="cls-4" x1="2.34" y1="22.01" x2="2.34" y2="22.47"/>
        <line class="cls-4" x1="3.87" y1="7.93" x2="2.34" y2="7.93"/>
        <line class="cls-4" x1="2.34" y1="8.92" x2="2.34" y2="8.93"/>
        <path class="cls-4" d="M2.57,8.41c0,.12.24.21.53.21s.54-.09.54-.21-.24-.21-.54-.21-.53.09-.53.21Z"/>
        <line class="cls-4" x1="2.34" y1="22.11" x2="4.02" y2="22.11"/>
        <line class="cls-4" x1="2.34" y1="21.04" x2="2.34" y2="21.04"/>
        <path class="cls-4" d="M3.64,21.6c0-.12-.24-.22-.54-.22s-.54.1-.54.22.24.22.54.22.54-.1.54-.22Z"/>
        <path class="cls-4" d="M2.11,20.28s.04,0,.06,0c.02,0,.03.01.05.02.01,0,.03.02.03.03,0,.01.01.03.01.04"/>
        <path class="cls-4" d="M2.11,9.79s.04,0,.06,0c.02,0,.03-.01.05-.02.01,0,.03-.02.03-.03,0-.01.01-.03.01-.04"/>
        <line class="cls-4" x1="4.94" y1="23.02" x2="4.02" y2="23.02"/>
        <line class="cls-4" x1="4.94" y1="22.01" x2="4.02" y2="22.01"/>
        <line class="cls-4" x1="4.94" y1="7" x2="3.87" y2="7"/>
        <line class="cls-4" x1="4.94" y1="7.96" x2="3.87" y2="7.96"/>
        <line class="cls-4" x1="3.87" y1="7.39" x2="2.34" y2="7.39"/>
        <line class="cls-4" x1="4.02" y1="22.68" x2="2.34" y2="22.68"/>
        <line class="cls-4" x1="2.11" y1="22.73" x2="1.27" y2="22.73"/>
        <line class="cls-4" x1="2.11" y1="7.34" x2="1.27" y2="7.34"/>
        <line class="cls-4" x1="2.34" y1="7" x2="1.27" y2="7"/>
        <line class="cls-4" x1="2.34" y1="7.96" x2="2.27" y2="7.96"/>
        <line class="cls-4" x1="2.34" y1="23.02" x2="1.27" y2="23.02"/>
        <line class="cls-4" x1="2.34" y1="22.01" x2="2.27" y2="22.01"/>
        <path class="cls-4" d="M2.27,22.58c0,.08-.07.15-.15.15"/>
        <path class="cls-4" d="M2.11,7.34c.08,0,.15.07.15.15"/>
        <line class="cls-4" x1="4.87" y1="21.04" x2="4.87" y2="8.92"/>
        <path class="cls-4" d="M2.34,11.14s0,.09-.02.13c0,.04-.02.09-.04.13-.02.04-.04.09-.06.12-.01.02-.03.04-.05.05,0,0-.02.02-.03.02-.01,0-.02,0-.04,0"/>
        <line class="cls-4" x1="2.11" y1="11.61" x2="1.27" y2="11.61"/>
        <line class="cls-4" x1="1.27" y1="18.46" x2="2.11" y2="18.46"/>
        <path class="cls-4" d="M2.11,18.46s.03,0,.04.01c.01,0,.02.01.03.02.02.02.03.04.05.06.03.04.05.08.06.12.02.04.03.09.04.13,0,.04.01.09.01.13"/>
        <line class="cls-4" x1="2.34" y1="18.93" x2="2.34" y2="21.04"/>
        <line class="cls-4" x1="2.34" y1="8.93" x2="2.34" y2="11.14"/>
        <line class="cls-4" x1="2.11" y1="18.48" x2="2.11" y2="20.28"/>
        <line class="cls-4" x1="2.11" y1="18.48" x2="1.27" y2="18.48"/>
        <line class="cls-4" x1="2.11" y1="21.68" x2="1.27" y2="21.68"/>
        <line class="cls-4" x1="2.11" y1="20.28" x2="2.11" y2="21.68"/>
        <line class="cls-4" x1="2.11" y1="21.73" x2="2.11" y2="21.68"/>
        <line class="cls-4" x1="2.27" y1="21.87" x2="1.27" y2="21.87"/>
        <line class="cls-4" x1="2.11" y1="22.44" x2="1.27" y2="22.44"/>
        <line class="cls-4" x1="2.11" y1="22.44" x2="2.11" y2="22.4"/>
        <line class="cls-4" x1="2.11" y1="22.44" x2="2.11" y2="22.73"/>
        <line class="cls-4" x1="1.27" y1="11.59" x2="2.11" y2="11.59"/>
        <line class="cls-4" x1="2.11" y1="9.79" x2="2.11" y2="11.59"/>
        <line class="cls-4" x1="2.11" y1="7.63" x2="1.27" y2="7.63"/>
        <line class="cls-4" x1="2.11" y1="7.34" x2="2.11" y2="7.63"/>
        <line class="cls-4" x1="2.11" y1="7.67" x2="2.11" y2="7.63"/>
        <line class="cls-4" x1="2.27" y1="8.2" x2="1.27" y2="8.2"/>
        <line class="cls-4" x1="2.11" y1="8.38" x2="1.27" y2="8.38"/>
        <line class="cls-4" x1="2.11" y1="8.38" x2="2.11" y2="8.34"/>
        <line class="cls-4" x1="2.11" y1="8.38" x2="2.11" y2="9.79"/>
        <path class="cls-4" d="M2.11,22.44c.08,0,.15-.05.15-.11"/>
        <path class="cls-4" d="M2.27,18.97s0-.09,0-.13c0-.04-.01-.09-.03-.13-.01-.04-.02-.09-.04-.13,0-.02-.02-.04-.03-.06,0,0-.01-.02-.02-.03,0,0,0,0-.01-.01,0,0-.01,0-.02,0"/>
        <path class="cls-4" d="M2.27,21.58c0,.06-.07.11-.15.11"/>
        <path class="cls-4" d="M2.11,11.59s.01,0,.02,0c0,0,0,0,0,0,0,0,0,0,0,0,0,0,0-.01.01-.02,0,0,0,0,0,0,0,0,0-.01.01-.02,0,0,.01-.02.01-.03,0,0,0,0,0,0,0-.02.01-.04.02-.06,0-.02.01-.04.02-.07,0,0,0,0,0,0,0-.02,0-.04.01-.06,0-.02,0-.04.01-.07h0s.01-.09.01-.13"/>
        <path class="cls-4" d="M2.11,8.38c.08,0,.15.05.15.11"/>
        <path class="cls-4" d="M2.27,7.74c0-.06-.07-.11-.15-.11"/>
        <path class="cls-4" d="M2.34,11.14s-.08-.02-.08-.04"/>
        <line class="cls-4" x1="2.11" y1="11.61" x2="2.11" y2="11.59"/>
        <path class="cls-4" d="M2.27,18.97s.03-.04.08-.04"/>
        <line class="cls-4" x1="2.11" y1="18.48" x2="2.11" y2="18.46"/>
        <line class="cls-4" x1="1.27" y1="6.24" x2="1.27" y2=".12"/>
        <line class="cls-4" x1="1.27" y1="6.24" x2="1.27" y2="23.83"/>
        <line class="cls-4" x1="1.27" y1="29.94" x2="1.27" y2="23.83"/>
        <line class="cls-4" x1="1.27" y1="29.94" x2=".66" y2="29.94"/>
        <line class="cls-4" x1=".66" y1=".13" x2="1.27" y2=".13"/>
        <line class="cls-4" x1=".66" y1="23.83" x2=".66" y2="29.94"/>
        <line class="cls-4" x1=".66" y1=".13" x2=".66" y2="6.24"/>
        <line class="cls-4" x1=".66" y1="6.24" x2=".66" y2="23.83"/>
        <line class="cls-4" x1=".66" y1="23.83" x2="1.27" y2="23.83"/>
        <line class="cls-4" x1="1.27" y1="6.24" x2=".66" y2="6.24"/>
      </g>
      <g>
        <line class="cls-4" x1="5.52" y1="13.41" x2="5.52" y2="14.01"/>
        <line class="cls-4" x1="5.52" y1="15.71" x2="5.52" y2="16.31"/>
        <line class="cls-4" x1="5.06" y1="16.31" x2="5.06" y2="15.71"/>
        <line class="cls-4" x1="5.06" y1="14.01" x2="5.06" y2="13.41"/>
        <line class="cls-4" x1="5.06" y1="13.41" x2="5.19" y2="13.41"/>
        <line class="cls-4" x1="5.37" y1="13.41" x2="5.52" y2="13.41"/>
        <line class="cls-4" x1="5.52" y1="14.01" x2="5.37" y2="14.01"/>
        <line class="cls-4" x1="5.19" y1="14.01" x2="5.06" y2="14.01"/>
        <line class="cls-4" x1="5.52" y1="16.31" x2="5.37" y2="16.31"/>
        <line class="cls-4" x1="5.19" y1="16.31" x2="5.06" y2="16.31"/>
        <line class="cls-4" x1="5.06" y1="15.71" x2="5.19" y2="15.71"/>
        <line class="cls-4" x1="5.37" y1="15.71" x2="5.52" y2="15.71"/>
        <line class="cls-4" x1="9.04" y1="16.31" x2="5.52" y2="16.31"/>
        <line class="cls-4" x1="5.06" y1="16.31" x2="1.7" y2="16.31"/>
        <line class="cls-4" x1="5.06" y1="13.41" x2="1.7" y2="13.41"/>
        <line class="cls-4" x1="9.04" y1="13.41" x2="5.52" y2="13.41"/>
        <line class="cls-4" x1="1.7" y1="16.31" x2="1.7" y2="13.41"/>
        <line class="cls-4" x1="5.37" y1="17.09" x2="5.37" y2="13.12"/>
        <line class="cls-4" x1="5.19" y1="17.09" x2="5.19" y2="13.12"/>
        <line class="cls-4" x1="5.37" y1="12.57" x2="5.37" y2="12.41"/>
        <line class="cls-4" x1="5.37" y1="12.7" x2="5.37" y2="12.57"/>
        <line class="cls-4" x1="5.37" y1="12.7" x2="5.37" y2="13.01"/>
        <line class="cls-4" x1="5.37" y1="13.01" x2="5.37" y2="13.12"/>
        <line class="cls-4" x1="5.19" y1="12.7" x2="5.19" y2="13.01"/>
        <line class="cls-4" x1="5.19" y1="12.57" x2="5.19" y2="12.7"/>
        <line class="cls-4" x1="5.19" y1="12.57" x2="5.19" y2="12.41"/>
        <line class="cls-4" x1="5.19" y1="13.12" x2="5.19" y2="13.01"/>
        <line class="cls-4" x1="5.37" y1="12.41" x2="5.19" y2="12.41"/>
        <line class="cls-4" x1="5.37" y1="17.09" x2="5.19" y2="17.09"/>
        <line class="cls-4" x1=".17" y1="14.1" x2=".17" y2="15.63"/>
        <line class="cls-4" x1=".13" y1="14.1" x2=".13" y2="15.63"/>
        <path class="cls-4" d="M1.7,15.07s0,0,0,0c0-.03,0-.07,0-.1,0-.04,0-.07,0-.11,0-.04,0-.08,0-.12,0-.04,0-.07,0-.09,0-.03,0-.05,0-.06,0-.01,0-.02,0-.02"/>
        <path class="cls-4" d="M1.59,15.16s0-.01,0-.02c0-.02,0-.04,0-.07,0-.03,0-.06,0-.1,0-.04,0-.07,0-.11,0-.04,0-.08,0-.12,0-.04,0-.07,0-.1,0-.03,0-.05,0-.07,0-.01,0-.02,0-.02"/>
        <path class="cls-4" d="M1.47,15.16s0-.01,0-.02c0-.01,0-.04,0-.07,0-.03,0-.06,0-.1,0-.04,0-.07,0-.11,0-.04,0-.08,0-.12,0-.04,0-.07,0-.1,0-.03,0-.05,0-.07,0-.01,0-.02,0-.02"/>
        <path class="cls-4" d="M1.35,15.16s0-.01,0-.02c0-.01,0-.04,0-.07,0-.03,0-.06,0-.1,0-.04,0-.07,0-.11,0-.04,0-.08,0-.12,0-.04,0-.07,0-.1,0-.03,0-.05,0-.07,0-.01,0-.02,0-.02"/>
        <path class="cls-4" d="M1.22,15.16s0-.01,0-.02c0-.01,0-.04,0-.07,0-.03,0-.06,0-.1s0-.07,0-.11c0-.04,0-.08,0-.12,0-.04,0-.07,0-.1,0-.03,0-.05,0-.07,0-.01,0-.02,0-.02"/>
        <path class="cls-4" d="M1.1,15.16s0-.01,0-.02c0-.02,0-.04,0-.07,0-.03,0-.06,0-.1,0-.04,0-.07,0-.11,0-.04,0-.08,0-.12,0-.04,0-.07,0-.1,0-.03,0-.05,0-.07,0-.01,0-.02,0-.02"/>
        <path class="cls-4" d="M.98,15.16s0-.01,0-.02c0-.02,0-.04,0-.07,0-.03,0-.06,0-.1,0-.04,0-.07,0-.11,0-.04,0-.08,0-.12,0-.03,0-.07,0-.1,0-.03,0-.05,0-.07,0-.01,0-.02,0-.02"/>
        <path class="cls-4" d="M.86,15.16s0-.01,0-.02c0-.02,0-.04,0-.07,0-.03,0-.06,0-.1,0-.04,0-.07,0-.11,0-.04,0-.08,0-.12,0-.04,0-.07,0-.1,0-.03,0-.05,0-.07,0-.01,0-.02,0-.02"/>
        <path class="cls-4" d="M.73,15.16s0-.01,0-.02c0-.02,0-.04,0-.07,0-.03,0-.06,0-.1,0-.04,0-.07,0-.11,0-.04,0-.08,0-.12,0-.04,0-.07,0-.1,0-.03,0-.05,0-.07,0-.01,0-.02,0-.02"/>
        <path class="cls-4" d="M1.64,14.56s0,0,0,0c0,0,0,.02,0,.05,0,.02,0,.05,0,.08,0,.03,0,.07,0,.11,0,.04,0,.08,0,.12,0,.04,0,.08,0,.11,0,.03,0,.06,0,.08,0,.02,0,.04,0,.04,0,0,0,0,0,0"/>
        <path class="cls-4" d="M1.52,14.56s0,0,0,0c0,.01,0,.03,0,.06,0,.02,0,.05,0,.09,0,.04,0,.07,0,.11,0,.04,0,.08,0,.12,0,.04,0,.07,0,.11,0,.03,0,.06,0,.08,0,.02,0,.03,0,.04,0,0,0,0,0,0"/>
        <path class="cls-4" d="M1.4,14.56s0,0,0,.01c0,.01,0,.03,0,.06,0,.02,0,.06,0,.09,0,.04,0,.07,0,.12,0,.04,0,.08,0,.11,0,.04,0,.07,0,.1,0,.03,0,.05,0,.07,0,.02,0,.03,0,.03,0,0,0,0,0,0"/>
        <path class="cls-4" d="M1.27,14.56s0,0,0,.02c0,.01,0,.04,0,.06,0,.03,0,.06,0,.09,0,.04,0,.08,0,.12,0,.04,0,.08,0,.11,0,.04,0,.07,0,.1,0,.03,0,.05,0,.07,0,.02,0,.03,0,.03,0,0,0,0,0,0"/>
        <path class="cls-4" d="M1.15,14.56s0,0,0,.02c0,.01,0,.04,0,.06,0,.03,0,.06,0,.09,0,.04,0,.08,0,.12,0,.04,0,.08,0,.11,0,.04,0,.07,0,.1,0,.03,0,.05,0,.07,0,.02,0,.03,0,.03"/>
        <path class="cls-4" d="M1.03,14.56s0,0,0,.02c0,.01,0,.04,0,.07,0,.03,0,.06,0,.09,0,.04,0,.08,0,.12,0,.04,0,.08,0,.11,0,.04,0,.07,0,.1,0,.03,0,.05,0,.07,0,.02,0,.03,0,.03"/>
        <path class="cls-4" d="M.91,14.56s0,0,0,.02c0,.01,0,.04,0,.07,0,.03,0,.06,0,.1,0,.04,0,.08,0,.12,0,.04,0,.08,0,.11,0,.04,0,.07,0,.1,0,.03,0,.05,0,.07,0,.02,0,.02,0,.02"/>
        <path class="cls-4" d="M.78,14.56s0,.01,0,.02c0,.01,0,.04,0,.07,0,.03,0,.06,0,.1,0,.04,0,.08,0,.12,0,.04,0,.08,0,.11,0,.04,0,.07,0,.1,0,.03,0,.05,0,.07,0,.02,0,.02,0,.02"/>
        <path class="cls-4" d="M.66,14.56s0,.01,0,.02c0,.01,0,.04,0,.07,0,.03,0,.06,0,.1,0,.04,0,.08,0,.12,0,.04,0,.08,0,.11,0,.04,0,.07,0,.1,0,.03,0,.05,0,.07,0,.01,0,.02,0,.02"/>
        <path class="cls-4" d="M1.7,14.48s0,0,0,0"/>
        <path class="cls-4" d="M1.58,14.48s0,0,0,0c0,.01,0,.03,0,.06,0,.03,0,.06,0,.1,0,.04,0,.09,0,.14,0,.05,0,.1,0,.15,0,.05,0,.1,0,.14,0,.04,0,.08,0,.1,0,.03,0,.05,0,.06,0,0,0,0,0,0"/>
        <path class="cls-4" d="M1.45,14.48s0,0,0,.01c0,.01,0,.04,0,.07,0,.03,0,.07,0,.11,0,.04,0,.09,0,.14,0,.05,0,.1,0,.15,0,.05,0,.1,0,.13,0,.04,0,.07,0,.1,0,.02,0,.04,0,.05,0,0,0,0,0,0"/>
        <path class="cls-4" d="M1.33,14.48h0s0,0,0,.02c0,.01,0,.04,0,.07,0,.03,0,.07,0,.11,0,.05,0,.09,0,.15,0,.05,0,.1,0,.14,0,.05,0,.09,0,.13,0,.04,0,.07,0,.09,0,.02,0,.04,0,.04t0,0"/>
        <path class="cls-4" d="M1.21,14.48s0,0,0,0c0,0,0,0,0,.02,0,.02,0,.04,0,.08,0,.03,0,.07,0,.12,0,.05,0,.1,0,.15,0,.05,0,.1,0,.14,0,.05,0,.09,0,.13,0,.04,0,.07,0,.09,0,.02,0,.03,0,.04h0"/>
        <path class="cls-4" d="M1.09,14.48s0,0,0,0c0,0,0,0,0,.02,0,.02,0,.05,0,.08,0,.03,0,.07,0,.12,0,.05,0,.1,0,.15,0,.05,0,.1,0,.14,0,.05,0,.09,0,.13,0,.04,0,.06,0,.08,0,.02,0,.03,0,.03h0"/>
        <path class="cls-4" d="M.96,14.48h0s0,0,0,.03c0,.02,0,.05,0,.08,0,.03,0,.07,0,.12,0,.05,0,.1,0,.15,0,.05,0,.1,0,.14,0,.05,0,.09,0,.13,0,.04,0,.06,0,.08,0,.02,0,.03,0,.03"/>
        <path class="cls-4" d="M.84,14.48s0,0,0,0c0,0,0,0,0,.03,0,.02,0,.05,0,.08,0,.04,0,.08,0,.12,0,.05,0,.1,0,.15,0,.05,0,.1,0,.14,0,.05,0,.09,0,.13,0,.03,0,.06,0,.08,0,.02,0,.03,0,.03"/>
        <path class="cls-4" d="M.72,14.48s0,0,0,0c0,0,0,0,0,.03,0,.02,0,.05,0,.08,0,.04,0,.08,0,.12,0,.05,0,.1,0,.15,0,.05,0,.1,0,.14,0,.05,0,.09,0,.13,0,.03,0,.06,0,.08,0,.02,0,.03,0,.03"/>
        <path class="cls-4" d="M.63,14.86h0c0,.05,0,.1,0,.15,0,.05,0,.09,0,.13,0,.03,0,.06,0,.08,0,.02,0,.03,0,.03"/>
        <path class="cls-4" d="M1.66,15.24s0,0,0-.01c0-.01,0-.04,0-.07,0-.03,0-.07,0-.11,0-.04,0-.09,0-.14,0-.05,0-.1,0-.15,0-.05,0-.09,0-.13,0-.04,0-.07,0-.1,0-.03,0-.04,0-.05,0,0,0,0,0,0"/>
        <path class="cls-4" d="M1.53,15.24s0,0,0,0c0-.01,0-.03,0-.06,0-.03,0-.07,0-.11,0-.04,0-.09,0-.14,0-.05,0-.1,0-.15,0-.05,0-.1,0-.14,0-.04,0-.08,0-.1,0-.03,0-.05,0-.06,0,0,0,0,0,0"/>
        <path class="cls-4" d="M1.41,15.24s0,0,0,0c0,0,0-.03,0-.05,0-.03,0-.06,0-.1,0-.04,0-.09,0-.14,0-.05,0-.1,0-.15,0-.05,0-.1,0-.14,0-.04,0-.08,0-.11,0-.03,0-.05,0-.07,0,0,0-.01,0-.01"/>
        <path class="cls-4" d="M1.29,15.24s0,0,0,0c0,0,0-.02,0-.04,0-.02,0-.05,0-.09,0-.04,0-.08,0-.13,0-.05,0-.1,0-.15,0-.05,0-.1,0-.14,0-.04,0-.08,0-.11,0-.03,0-.06,0-.07,0-.01,0-.02,0-.02"/>
        <path class="cls-4" d="M1.17,15.24s0,0,0,0c0,0,0-.02,0-.04,0-.02,0-.05,0-.09,0-.04,0-.08,0-.13,0-.05,0-.1,0-.14,0-.05,0-.1,0-.15,0-.04,0-.08,0-.12,0-.04,0-.06,0-.08,0-.01,0-.02,0-.02"/>
        <path class="cls-4" d="M1.04,15.24s0,0,0,0c0,0,0-.01,0-.03s0-.05,0-.09c0-.04,0-.08,0-.13,0-.05,0-.09,0-.14,0-.05,0-.1,0-.15,0-.04,0-.08,0-.12,0-.04,0-.06,0-.08,0-.02,0-.02,0-.02"/>
        <path class="cls-4" d="M.92,15.24s0,0,0,0c0,0,0-.01,0-.03,0-.02,0-.05,0-.08,0-.04,0-.08,0-.13,0-.05,0-.1,0-.14,0-.05,0-.1,0-.15,0-.05,0-.09,0-.12,0-.04,0-.06,0-.08,0-.02,0-.03,0-.03"/>
        <path class="cls-4" d="M.8,15.24s0,0,0,0c0,0,0,0,0-.03,0-.02,0-.05,0-.08,0-.04,0-.08,0-.13,0-.05,0-.1,0-.14,0-.05,0-.1,0-.15,0-.04,0-.09,0-.12,0-.04,0-.06,0-.08,0-.02,0-.03,0-.03"/>
        <path class="cls-4" d="M.68,15.24s0,0,0,0c0,0,0,0,0-.03,0-.02,0-.05,0-.08,0-.04,0-.08,0-.13,0-.04,0-.09,0-.14,0-.05,0-.1,0-.15,0-.05,0-.09,0-.12"/>
        <line class="cls-4" x1=".4" y1="15.4" x2=".17" y2="15.62"/>
        <line class="cls-4" x1=".4" y1="14.33" x2=".17" y2="14.1"/>
        <line class="cls-4" x1=".17" y1="15.63" x2=".12" y2="15.63"/>
        <line class="cls-4" x1=".17" y1="14.1" x2=".12" y2="14.1"/>
        <line class="cls-4" x1="1.59" y1="15.16" x2="1.58" y2="15.16"/>
        <line class="cls-4" x1="1.47" y1="15.16" x2="1.46" y2="15.16"/>
        <line class="cls-4" x1="1.35" y1="15.16" x2="1.33" y2="15.16"/>
        <line class="cls-4" x1="1.23" y1="15.16" x2="1.21" y2="15.16"/>
        <line class="cls-4" x1="1.1" y1="15.16" x2="1.09" y2="15.16"/>
        <line class="cls-4" x1=".98" y1="15.16" x2=".97" y2="15.16"/>
        <line class="cls-4" x1=".86" y1="15.16" x2=".84" y2="15.16"/>
        <line class="cls-4" x1=".74" y1="15.16" x2=".72" y2="15.16"/>
        <line class="cls-4" x1="1.65" y1="14.56" x2="1.64" y2="14.56"/>
        <line class="cls-4" x1="1.53" y1="14.56" x2="1.52" y2="14.56"/>
        <line class="cls-4" x1="1.41" y1="14.56" x2="1.4" y2="14.56"/>
        <line class="cls-4" x1="1.29" y1="14.56" x2="1.27" y2="14.56"/>
        <line class="cls-4" x1="1.16" y1="14.56" x2="1.15" y2="14.56"/>
        <line class="cls-4" x1="1.04" y1="14.56" x2="1.03" y2="14.56"/>
        <line class="cls-4" x1=".92" y1="14.56" x2=".91" y2="14.56"/>
        <line class="cls-4" x1=".8" y1="14.56" x2=".78" y2="14.56"/>
        <line class="cls-4" x1=".68" y1="14.56" x2=".66" y2="14.56"/>
        <line class="cls-4" x1=".72" y1="14.48" x2=".74" y2="14.48"/>
        <line class="cls-4" x1=".84" y1="14.48" x2=".86" y2="14.48"/>
        <line class="cls-4" x1=".97" y1="14.48" x2=".98" y2="14.48"/>
        <line class="cls-4" x1="1.09" y1="14.48" x2="1.1" y2="14.48"/>
        <line class="cls-4" x1="1.21" y1="14.48" x2="1.23" y2="14.48"/>
        <line class="cls-4" x1="1.33" y1="14.48" x2="1.35" y2="14.48"/>
        <line class="cls-4" x1="1.46" y1="14.48" x2="1.47" y2="14.48"/>
        <line class="cls-4" x1="1.58" y1="14.48" x2="1.59" y2="14.48"/>
        <line class="cls-4" x1=".66" y1="15.24" x2=".68" y2="15.24"/>
        <line class="cls-4" x1=".78" y1="15.24" x2=".8" y2="15.24"/>
        <line class="cls-4" x1=".91" y1="15.24" x2=".92" y2="15.24"/>
        <line class="cls-4" x1="1.03" y1="15.24" x2="1.04" y2="15.24"/>
        <line class="cls-4" x1="1.15" y1="15.24" x2="1.16" y2="15.24"/>
        <line class="cls-4" x1="1.27" y1="15.24" x2="1.29" y2="15.24"/>
        <line class="cls-4" x1="1.39" y1="15.24" x2="1.41" y2="15.24"/>
        <line class="cls-4" x1="1.52" y1="15.24" x2="1.53" y2="15.24"/>
        <line class="cls-4" x1="1.64" y1="15.24" x2="1.65" y2="15.24"/>
        <path class="cls-4" d="M1.59,14.48s.03.05.05.08"/>
        <path class="cls-4" d="M1.47,14.48s.03.05.05.08"/>
        <path class="cls-4" d="M1.35,14.48s.03.05.05.08"/>
        <path class="cls-4" d="M1.23,14.48s.03.05.05.08"/>
        <path class="cls-4" d="M1.11,14.48s.03.05.05.08"/>
        <path class="cls-4" d="M.98,14.48s.03.05.05.08"/>
        <path class="cls-4" d="M.86,14.48s.03.05.05.08"/>
        <path class="cls-4" d="M.74,14.48s.03.05.05.08"/>
        <path class="cls-4" d="M.63,14.5s.02.04.03.06"/>
        <path class="cls-4" d="M1.7,15.17s-.03.05-.04.08"/>
        <line class="cls-4" x1="1.58" y1="15.16" x2="1.53" y2="15.24"/>
        <line class="cls-4" x1="1.46" y1="15.16" x2="1.41" y2="15.24"/>
        <line class="cls-4" x1="1.33" y1="15.16" x2="1.29" y2="15.24"/>
        <line class="cls-4" x1="1.21" y1="15.16" x2="1.17" y2="15.24"/>
        <line class="cls-4" x1="1.09" y1="15.16" x2="1.04" y2="15.24"/>
        <path class="cls-4" d="M.97,15.16s-.03.05-.05.08"/>
        <path class="cls-4" d="M.84,15.16s-.03.05-.05.08"/>
        <line class="cls-4" x1=".72" y1="15.16" x2=".68" y2="15.24"/>
        <path class="cls-4" d="M1.65,14.56s.03-.05.04-.08"/>
        <path class="cls-4" d="M1.53,14.56s.03-.05.04-.08"/>
        <path class="cls-4" d="M1.41,14.56s.03-.05.04-.08"/>
        <path class="cls-4" d="M1.29,14.56s.03-.05.04-.08"/>
        <path class="cls-4" d="M1.16,14.56s.03-.05.04-.08"/>
        <path class="cls-4" d="M1.04,14.56s.03-.05.04-.08"/>
        <path class="cls-4" d="M.92,14.56s.03-.05.04-.08"/>
        <path class="cls-4" d="M.8,14.56s.03-.05.04-.08"/>
        <path class="cls-4" d="M.67,14.56s.03-.05.04-.08"/>
        <path class="cls-4" d="M1.64,15.24s-.03-.05-.05-.08"/>
        <path class="cls-4" d="M1.52,15.24s-.03-.05-.05-.08"/>
        <path class="cls-4" d="M1.39,15.24s-.03-.05-.05-.08"/>
        <path class="cls-4" d="M1.27,15.24s-.03-.05-.05-.08"/>
        <path class="cls-4" d="M1.15,15.24s-.03-.05-.05-.08"/>
        <path class="cls-4" d="M1.03,15.24s-.03-.05-.05-.08"/>
        <path class="cls-4" d="M.9,15.24s-.03-.05-.05-.08"/>
        <path class="cls-4" d="M.78,15.24s-.03-.05-.05-.08"/>
        <path class="cls-4" d="M.66,15.24s-.02-.03-.03-.05"/>
        <line class="cls-4" x1=".4" y1="12.95" x2=".4" y2="16.77"/>
        <line class="cls-4" x1=".63" y1="12.95" x2=".63" y2="16.77"/>
        <line class="cls-4" x1=".63" y1="16.77" x2=".4" y2="16.77"/>
        <line class="cls-4" x1=".63" y1="12.95" x2=".4" y2="12.95"/>
        <line class="cls-4" x1="5.37" y1="13.12" x2="5.19" y2="13.12"/>
        <line class="cls-4" x1="5.19" y1="12.57" x2="5.37" y2="12.57"/>
        <line class="cls-4" x1="5.19" y1="13.01" x2="5.37" y2="13.01"/>
        <line class="cls-4" x1="5.37" y1="12.7" x2="5.19" y2="12.7"/>
        <line class="cls-4" x1="20.93" y1="16.34" x2="20.68" y2="16.34"/>
        <line class="cls-7" x1="20.19" y1="16.34" x2="9.54" y2="16.34"/>
        <line class="cls-4" x1="9.29" y1="16.34" x2="9.04" y2="16.34"/>
        <line class="cls-4" x1="20.93" y1="13.43" x2="20.68" y2="13.43"/>
        <line class="cls-7" x1="20.19" y1="13.43" x2="9.54" y2="13.43"/>
        <line class="cls-4" x1="9.29" y1="13.43" x2="9.04" y2="13.43"/>
        <line class="cls-4" x1="20.93" y1="16.34" x2="20.93" y2="16.09"/>
        <line class="cls-1" x1="20.93" y1="15.6" x2="20.93" y2="13.92"/>
        <line class="cls-4" x1="20.93" y1="13.68" x2="20.93" y2="13.43"/>
        <line class="cls-4" x1="20.06" y1="21.97" x2="20.06" y2="21.72"/>
        <line class="cls-5" x1="20.06" y1="21.22" x2="20.06" y2="8.49"/>
        <line class="cls-4" x1="20.06" y1="8.24" x2="20.06" y2="7.99"/>
        <line class="cls-4" x1="19.27" y1="21.97" x2="19.27" y2="21.72"/>
        <line class="cls-5" x1="19.27" y1="21.22" x2="19.27" y2="8.49"/>
        <line class="cls-4" x1="19.27" y1="8.24" x2="19.27" y2="7.99"/>
        <line class="cls-3" x1="19.27" y1="7.99" x2="20.06" y2="7.99"/>
        <line class="cls-4" x1="11.53" y1="21.97" x2="11.53" y2="21.72"/>
        <line class="cls-5" x1="11.53" y1="21.22" x2="11.53" y2="8.49"/>
        <line class="cls-4" x1="11.53" y1="8.24" x2="11.53" y2="7.99"/>
        <line class="cls-4" x1="10.74" y1="21.97" x2="10.74" y2="21.72"/>
        <line class="cls-5" x1="10.74" y1="21.22" x2="10.74" y2="8.49"/>
        <line class="cls-4" x1="10.74" y1="8.24" x2="10.74" y2="7.99"/>
        <line class="cls-3" x1="10.74" y1="7.99" x2="11.53" y2="7.99"/>
      </g>
      <g>
        <line class="cls-4" x1=".66" y1="31.53" x2=".66" y2="44.27"/>
        <line class="cls-4" x1="7.64" y1="38.2" x2="185.6" y2="38.2"/>
        <line class="cls-4" x1="189.16" y1="33.08" x2="189.16" y2="44.27"/>
        <polygon points=".66 38.2 9.4 39.68 9.4 36.72 .66 38.2"/>
        <polygon points="189.09 38.2 180.35 36.72 180.35 39.68 189.09 38.2"/>
      </g>
      <rect class="cls-2" x="8.96" y="7.6" width="174.25" height="15.28"/>
      <g>
        <line class="cls-4" x1="184.72" y1="11.15" x2="184.72" y2="11.02"/>
        <line class="cls-4" x1="184.72" y1="10.35" x2="184.72" y2="11.01"/>
        <line class="cls-4" x1="184.72" y1="10.35" x2="184.72" y2="9.43"/>
        <line class="cls-4" x1="184.72" y1="20.67" x2="184.72" y2="19.75"/>
        <line class="cls-4" x1="184.72" y1="19.09" x2="184.72" y2="19.75"/>
        <line class="cls-4" x1="184.72" y1="19.09" x2="184.72" y2="18.95"/>
        <line class="cls-4" x1="184.72" y1="18.19" x2="184.72" y2="18.95"/>
        <line class="cls-4" x1="184.72" y1="18.19" x2="184.72" y2="16.12"/>
        <line class="cls-4" x1="184.72" y1="16.12" x2="184.72" y2="13.98"/>
        <line class="cls-4" x1="184.72" y1="13.98" x2="184.72" y2="11.92"/>
        <line class="cls-4" x1="184.72" y1="11.15" x2="184.72" y2="11.92"/>
        <line class="cls-4" x1="187.16" y1="8.82" x2="185.02" y2="8.82"/>
        <line class="cls-4" x1="184.72" y1="9.43" x2="188.85" y2="9.43"/>
        <line class="cls-4" x1="187.09" y1="13.98" x2="187.09" y2="16.12"/>
        <line class="cls-4" x1="184.72" y1="13.98" x2="187.09" y2="13.98"/>
        <line class="cls-4" x1="188.08" y1="11.15" x2="188.08" y2="13.98"/>
        <line class="cls-4" x1="188.85" y1="19.09" x2="188.85" y2="11.02"/>
        <line class="cls-4" x1="187.09" y1="13.98" x2="188.08" y2="13.98"/>
        <line class="cls-4" x1="187.09" y1="16.12" x2="188.08" y2="16.12"/>
        <line class="cls-4" x1="188.08" y1="16.12" x2="188.08" y2="18.95"/>
        <line class="cls-4" x1="188.85" y1="9.43" x2="188.85" y2="10.35"/>
        <line class="cls-4" x1="188.85" y1="10.35" x2="188.85" y2="11.01"/>
        <line class="cls-4" x1="188.85" y1="19.09" x2="188.85" y2="19.75"/>
        <line class="cls-4" x1="188.85" y1="19.75" x2="188.85" y2="20.67"/>
        <line class="cls-4" x1="188.85" y1="20.67" x2="184.72" y2="20.67"/>
        <line class="cls-4" x1="188.08" y1="18.19" x2="184.72" y2="18.19"/>
        <line class="cls-4" x1="188.08" y1="11.92" x2="184.72" y2="11.92"/>
        <line class="cls-4" x1="187.09" y1="16.12" x2="184.72" y2="16.12"/>
        <line class="cls-4" x1="184.72" y1="18.49" x2="184.11" y2="18.49"/>
        <line class="cls-4" x1="184.72" y1="11.61" x2="184.11" y2="11.61"/>
        <line class="cls-4" x1="187.16" y1="8.82" x2="187.16" y2="9.43"/>
        <line class="cls-4" x1="185.02" y1="8.82" x2="185.02" y2="9.43"/>
        <line class="cls-4" x1="183.49" y1="7.41" x2="183.49" y2="22.7"/>
        <line class="cls-4" x1="184.11" y1="7.41" x2="184.11" y2="22.7"/>
        <line class="cls-4" x1="184.11" y1="22.7" x2="183.49" y2="22.7"/>
        <line class="cls-4" x1="184.11" y1="7.41" x2="183.49" y2="7.41"/>
        <line class="cls-4" x1="187.04" y1="21.28" x2="185.15" y2="21.28"/>
        <path class="cls-4" d="M185.15,21.28c-.07,0-.12-.05-.12-.12"/>
        <path class="cls-4" d="M187.16,21.16c0,.07-.06.12-.12.12"/>
        <line class="cls-4" x1="187.16" y1="20.67" x2="187.16" y2="21.16"/>
        <line class="cls-4" x1="185.02" y1="20.67" x2="185.02" y2="21.16"/>
        <line class="cls-4" x1="183.36" y1="22.77" x2="183.36" y2="7.33"/>
        <line class="cls-4" x1="188.85" y1="11.02" x2="184.72" y2="11.02"/>
        <line class="cls-4" x1="184.72" y1="11.15" x2="188.08" y2="11.15"/>
        <line class="cls-4" x1="188.08" y1="18.95" x2="184.72" y2="18.95"/>
        <line class="cls-4" x1="188.85" y1="19.09" x2="184.72" y2="19.09"/>
        <line class="cls-4" x1="188.85" y1="10.35" x2="184.72" y2="10.35"/>
        <line class="cls-4" x1="188.85" y1="19.75" x2="184.72" y2="19.75"/>
        <line class="cls-4" x1="185.02" y1="21.16" x2="187.16" y2="21.16"/>
        <line class="cls-4" x1="188.85" y1="29.96" x2="188.85" y2="23.84"/>
        <line class="cls-4" x1="188.85" y1="6.26" x2="188.85" y2="23.84"/>
        <line class="cls-4" x1="188.85" y1="6.26" x2="188.85" y2=".14"/>
        <line class="cls-4" x1="188.85" y1="29.96" x2="189.46" y2="29.96"/>
        <line class="cls-4" x1="189.46" y1=".14" x2="188.85" y2=".14"/>
        <line class="cls-4" x1="189.46" y1="23.84" x2="189.46" y2="29.96"/>
        <line class="cls-4" x1="189.46" y1=".14" x2="189.46" y2="6.26"/>
        <line class="cls-4" x1="189.46" y1="6.26" x2="189.46" y2="23.84"/>
        <line class="cls-4" x1="189.46" y1="23.84" x2="188.85" y2="23.84"/>
        <line class="cls-4" x1="188.85" y1="6.26" x2="189.46" y2="6.26"/>
        <rect class="cls-8" x="130.4" y="9.88" width="52.96" height="10.32"/>
        <rect class="cls-6" x="127.66" y="8.43" width="2.74" height="13.24"/>
      </g>
    </g>
  </g>
</svg>